{
.appVersion = "895";
copyright = "Copyright 2016 Jeremy Tribby. SIL OFL License v1.1.";
date = "2016-07-12 00:27:02 +0000";
designer = "Jeremy Tribby";
designerURL = "http://tribby.com/";
familyName = Barlow;
fontMaster = (
{
ascender = 800;
capHeight = 700;
customParameters = (
{
name = paramArea;
value = "400";
},
{
name = paramDepth;
value = "10";
},
{
name = paramOver;
value = "0";
}
);
descender = -200;
horizontalStems = (
23
);
id = "262880E7-CFE1-4BDA-902E-E24798F3240A";
userData = {
GSCornerRadius = 8;
GSOffsetHorizontal = 49;
GSOffsetMakeStroke = 1;
GSOffsetVertical = 48;
noodleExtremesAndInflections = 0;
noodleRemoveOverlap = 1;
noodleThickness = "50.0";
};
verticalStems = (
22
);
visible = 1;
weight = Light;
weightValue = 23;
xHeight = 500;
},
{
ascender = 800;
capHeight = 700;
customParameters = (
{
name = paramArea;
value = "210";
},
{
name = paramDepth;
value = "12";
},
{
name = paramOver;
value = "1";
}
);
descender = -200;
horizontalStems = (
198
);
id = "4F25946F-63AC-42D6-8D55-01CF6A99025B";
userData = {
GSCornerRadius = 12;
GSOffsetHorizontal = 176;
GSOffsetMakeStroke = 1;
GSOffsetVertical = 0;
noodleExtremesAndInflections = 1;
noodleRemoveOverlap = 1;
noodleThickness = "50.0";
};
verticalStems = (
202
);
weight = Bold;
weightValue = 202;
xHeight = 500;
}
);
glyphs = (
{
color = 1;
glyphname = A;
lastChange = "2016-10-12 01:38:53 +0000";
layers = (
{
layerId = "262880E7-CFE1-4BDA-902E-E24798F3240A";
paths = (
{
closed = 1;
nodes = (
"80 0 LINE",
"234 656 LINE",
"388 0 LINE",
"410 0 LINE",
"245 700 LINE",
"223 700 LINE",
"58 0 LINE"
);
},
{
closed = 1;
nodes = (
"357 145 LINE",
"357 166 LINE",
"110 166 LINE",
"110 145 LINE"
);
}
);
width = 468;
},
{
layerId = "4F25946F-63AC-42D6-8D55-01CF6A99025B";
paths = (
{
closed = 1;
nodes = (
"220 0 LINE",
"271 430 LINE",
"322 0 LINE",
"552 0 LINE",
"387 700 LINE",
"155 700 LINE",
"-10 0 LINE"
);
},
{
closed = 1;
nodes = (
"421 79 LINE",
"421 214 LINE",
"121 214 LINE",
"121 79 LINE"
);
}
);
width = 542;
},
{
associatedMasterId = "262880E7-CFE1-4BDA-902E-E24798F3240A";
layerId = "09B97E43-C149-48A2-81D6-63259EF6020F";
name = "DemiBold{119,100}";
paths = (
{
closed = 1;
nodes = (
"155 0 LINE",
"254 500 LINE",
"353 0 LINE",
"486 0 LINE",
"321 700 LINE",
"187 700 LINE",
"22 0 LINE"
);
},
{
closed = 1;
nodes = (
"391 110 LINE",
"391 232 LINE",
"116 232 LINE",
"116 110 LINE"
);
}
);
width = 508;
}
);
unicode = 0041;
},
{
color = 1;
glyphname = B;
lastChange = "2016-10-12 01:17:32 +0000";
layers = (
{
layerId = "262880E7-CFE1-4BDA-902E-E24798F3240A";
paths = (
{
closed = 1;
nodes = (
"246 351 LINE SMOOTH",
"361 351 OFFCURVE",
"432 415 OFFCURVE",
"432 523 CURVE SMOOTH",
"432 631 OFFCURVE",
"361 700 OFFCURVE",
"246 700 CURVE SMOOTH",
"100 700 LINE",
"100 351 LINE"
);
},
{
closed = 1;
nodes = (
"122 351 LINE",
"246 351 LINE SMOOTH",
"348 351 OFFCURVE",
"410 288 OFFCURVE",
"410 186 CURVE SMOOTH",
"410 84 OFFCURVE",
"348 22 OFFCURVE",
"246 22 CURVE SMOOTH",
"122 22 LINE"
);
},
{
closed = 1;
nodes = (
"246 0 LINE SMOOTH",
"361 0 OFFCURVE",
"432 71 OFFCURVE",
"432 186 CURVE SMOOTH",
"432 301 OFFCURVE",
"361 372 OFFCURVE",
"246 372 CURVE SMOOTH",
"100 372 LINE",
"100 0 LINE"
);
},
{
closed = 1;
nodes = (
"122 679 LINE",
"246 679 LINE SMOOTH",
"348 679 OFFCURVE",
"410 618 OFFCURVE",
"410 523 CURVE SMOOTH",
"410 428 OFFCURVE",
"348 372 OFFCURVE",
"246 372 CURVE SMOOTH",
"122 372 LINE"
);
}
);
width = 509;
},
{
layerId = "4F25946F-63AC-42D6-8D55-01CF6A99025B";
paths = (
{
closed = 1;
nodes = (
"305 308 LINE SMOOTH",
"454 308 OFFCURVE",
"554 384 OFFCURVE",
"554 502 CURVE SMOOTH",
"554 619 OFFCURVE",
"454 700 OFFCURVE",
"305 700 CURVE SMOOTH",
"53 700 LINE",
"53 308 LINE"
);
},
{
closed = 1;
nodes = (
"265 286 LINE",
"305 286 LINE SMOOTH",
"336 286 OFFCURVE",
"356 265 OFFCURVE",
"356 235 CURVE SMOOTH",
"356 204 OFFCURVE",
"335 184 OFFCURVE",
"304 184 CURVE SMOOTH",
"265 184 LINE"
);
},
{
closed = 1;
nodes = (
"334 0 LINE SMOOTH",
"479 0 OFFCURVE",
"575 81 OFFCURVE",
"575 205 CURVE SMOOTH",
"575 336 OFFCURVE",
"467 426 OFFCURVE",
"304 426 CURVE",
"53 426 LINE",
"53 0 LINE"
);
},
{
closed = 1;
nodes = (
"265 542 LINE",
"304 542 LINE",
"333 542 OFFCURVE",
"353 524 OFFCURVE",
"353 497 CURVE SMOOTH",
"353 470 OFFCURVE",
"333 452 OFFCURVE",
"304 452 CURVE",
"265 452 LINE"
);
}
);
width = 594;
}
);
unicode = 0042;
},
{
color = 1;
glyphname = C;
lastChange = "2016-10-12 03:48:34 +0000";
layers = (
{
layerId = "262880E7-CFE1-4BDA-902E-E24798F3240A";
paths = (
{
closed = 1;
nodes = (
"352 -9 OFFCURVE",
"414 50 OFFCURVE",
"414 150 CURVE SMOOTH",
"414 152 LINE",
"392 152 LINE",
"392 150 LINE SMOOTH",
"392 64 OFFCURVE",
"340 11 OFFCURVE",
"253 11 CURVE SMOOTH",
"166 11 OFFCURVE",
"114 64 OFFCURVE",
"114 150 CURVE SMOOTH",
"114 550 LINE SMOOTH",
"114 637 OFFCURVE",
"168 690 OFFCURVE",
"253 690 CURVE SMOOTH",
"338 690 OFFCURVE",
"392 637 OFFCURVE",
"392 550 CURVE SMOOTH",
"392 548 LINE",
"414 548 LINE",
"414 550 LINE SMOOTH",
"414 650 OFFCURVE",
"352 709 OFFCURVE",
"253 709 CURVE SMOOTH",
"154 709 OFFCURVE",
"92 650 OFFCURVE",
"92 550 CURVE SMOOTH",
"92 150 LINE SMOOTH",
"92 50 OFFCURVE",
"154 -9 OFFCURVE",
"253 -9 CURVE SMOOTH"
);
}
);
width = 479;
},
{
layerId = "4F25946F-63AC-42D6-8D55-01CF6A99025B";
paths = (
{
closed = 1;
nodes = (
"447 -10 OFFCURVE",
"549 67 OFFCURVE",
"549 183 CURVE SMOOTH",
"549 278 LINE",
"337 278 LINE",
"337 223 LINE SMOOTH",
"337 196 OFFCURVE",
"319 178 OFFCURVE",
"293 178 CURVE SMOOTH",
"267 178 OFFCURVE",
"249 196 OFFCURVE",
"249 223 CURVE SMOOTH",
"249 477 LINE SMOOTH",
"249 504 OFFCURVE",
"267 522 OFFCURVE",
"293 522 CURVE SMOOTH",
"319 522 OFFCURVE",
"337 504 OFFCURVE",
"337 477 CURVE SMOOTH",
"337 422 LINE",
"549 422 LINE",
"549 517 LINE SMOOTH",
"549 633 OFFCURVE",
"447 710 OFFCURVE",
"293 710 CURVE SMOOTH",
"139 710 OFFCURVE",
"37 633 OFFCURVE",
"37 517 CURVE SMOOTH",
"37 183 LINE SMOOTH",
"37 67 OFFCURVE",
"139 -10 OFFCURVE",
"293 -10 CURVE SMOOTH"
);
}
);
width = 576;
}
);
unicode = 0043;
},
{
color = 1;
glyphname = D;
lastChange = "2016-10-12 00:56:11 +0000";
layers = (
{
layerId = "262880E7-CFE1-4BDA-902E-E24798F3240A";
paths = (
{
closed = 1;
nodes = (
"261 0 LINE SMOOTH",
"361 0 OFFCURVE",
"422 61 OFFCURVE",
"422 161 CURVE SMOOTH",
"422 539 LINE SMOOTH",
"422 639 OFFCURVE",
"361 700 OFFCURVE",
"261 700 CURVE SMOOTH",
"100 700 LINE",
"100 0 LINE"
);
},
{
closed = 1;
nodes = (
"122 679 LINE",
"261 679 LINE SMOOTH",
"347 679 OFFCURVE",
"400 626 OFFCURVE",
"400 539 CURVE SMOOTH",
"400 161 LINE SMOOTH",
"400 75 OFFCURVE",
"347 22 OFFCURVE",
"261 22 CURVE SMOOTH",
"122 22 LINE"
);
}
);
width = 512;
},
{
layerId = "4F25946F-63AC-42D6-8D55-01CF6A99025B";
paths = (
{
closed = 1;
nodes = (
"344 0 LINE SMOOTH",
"475 0 OFFCURVE",
"556 73 OFFCURVE",
"556 193 CURVE SMOOTH",
"556 507 LINE SMOOTH",
"556 627 OFFCURVE",
"475 700 OFFCURVE",
"344 700 CURVE SMOOTH",
"53 700 LINE",
"53 0 LINE"
);
},
{
closed = 1;
nodes = (
"265 526 LINE",
"300 526 LINE SMOOTH",
"327 526 OFFCURVE",
"344 509 OFFCURVE",
"344 481 CURVE SMOOTH",
"344 219 LINE SMOOTH",
"344 191 OFFCURVE",
"327 174 OFFCURVE",
"300 174 CURVE SMOOTH",
"265 174 LINE"
);
}
);
width = 592;
}
);
unicode = 0044;
},
{
color = 1;
glyphname = E;
lastChange = "2016-10-12 01:37:26 +0000";
layers = (
{
layerId = "262880E7-CFE1-4BDA-902E-E24798F3240A";
paths = (
{
closed = 1;
nodes = (
"421 0 LINE",
"421 22 LINE",
"122 22 LINE",
"122 679 LINE",
"421 679 LINE",
"421 700 LINE",
"100 700 LINE",
"100 0 LINE"
);
},
{
closed = 1;
nodes = (
"316 340 LINE",
"316 361 LINE",
"111 361 LINE",
"111 340 LINE"
);
}
);
width = 477;
},
{
layerId = "4F25946F-63AC-42D6-8D55-01CF6A99025B";
paths = (
{
closed = 1;
nodes = (
"519 0 LINE",
"519 188 LINE",
"265 188 LINE",
"265 512 LINE",
"519 512 LINE",
"519 700 LINE",
"53 700 LINE",
"53 0 LINE"
);
},
{
closed = 1;
nodes = (
"409 266 LINE",
"409 434 LINE",
"179 434 LINE",
"179 266 LINE"
);
}
);
width = 557;
},
{
associatedMasterId = "262880E7-CFE1-4BDA-902E-E24798F3240A";
layerId = "21D0BE0D-9149-477D-850E-37608F5C3F7D";
paths = (
{
closed = 1;
nodes = (
"467 0 LINE",
"467 93 LINE",
"190 93 LINE",
"190 610 LINE",
"467 610 LINE",
"467 700 LINE",
"93 700 LINE",
"93 0 LINE"
);
},
{
closed = 1;
nodes = (
"365 307 LINE",
"365 395 LINE",
"104 395 LINE",
"104 307 LINE"
);
}
);
width = 502;
}
);
unicode = 0045;
},
{
color = 1;
glyphname = F;
lastChange = "2016-10-12 01:37:35 +0000";
layers = (
{
layerId = "262880E7-CFE1-4BDA-902E-E24798F3240A";
paths = (
{
closed = 1;
nodes = (
"122 0 LINE",
"122 679 LINE",
"421 679 LINE",
"421 700 LINE",
"100 700 LINE",
"100 0 LINE"
);
},
{
closed = 1;
nodes = (
"316 340 LINE",
"316 361 LINE",
"111 361 LINE",
"111 340 LINE"
);
}
);
width = 474;
},
{
layerId = "4F25946F-63AC-42D6-8D55-01CF6A99025B";
paths = (
{
closed = 1;
nodes = (
"269 0 LINE",
"269 512 LINE",
"517 512 LINE",
"517 700 LINE",
"53 700 LINE",
"53 0 LINE"
);
},
{
closed = 1;
nodes = (
"405 266 LINE",
"405 434 LINE",
"182 434 LINE",
"182 266 LINE"
);
}
);
width = 540;
}
);
unicode = 0046;
},
{
color = 1;
glyphname = G;
lastChange = "2016-10-12 03:48:45 +0000";
layers = (
{
layerId = "262880E7-CFE1-4BDA-902E-E24798F3240A";
paths = (
{
closed = 1;
nodes = (
"352 -9 OFFCURVE",
"414 51 OFFCURVE",
"414 150 CURVE",
"414 361 LINE",
"253 361 LINE",
"253 340 LINE",
"392 340 LINE",
"392 150 LINE",
"392 63 OFFCURVE",
"340 11 OFFCURVE",
"253 11 CURVE SMOOTH",
"166 11 OFFCURVE",
"114 63 OFFCURVE",
"114 150 CURVE",
"114 550 LINE",
"114 637 OFFCURVE",
"166 690 OFFCURVE",
"253 690 CURVE SMOOTH",
"340 690 OFFCURVE",
"392 637 OFFCURVE",
"392 550 CURVE",
"414 550 LINE",
"414 649 OFFCURVE",
"352 709 OFFCURVE",
"253 709 CURVE SMOOTH",
"154 709 OFFCURVE",
"92 649 OFFCURVE",
"92 550 CURVE",
"92 150 LINE",
"92 51 OFFCURVE",
"154 -9 OFFCURVE",
"253 -9 CURVE SMOOTH"
);
}
);
width = 494;
},
{
layerId = "4F25946F-63AC-42D6-8D55-01CF6A99025B";
paths = (
{
closed = 1;
nodes = (
"442 -10 OFFCURVE",
"544 88 OFFCURVE",
"544 234 CURVE SMOOTH",
"544 400 LINE",
"288 400 LINE",
"288 270 LINE",
"332 270 LINE",
"332 234 LINE SMOOTH",
"332 200 OFFCURVE",
"314 178 OFFCURVE",
"288 178 CURVE SMOOTH",
"262 178 OFFCURVE",
"244 200 OFFCURVE",
"244 234 CURVE SMOOTH",
"244 466 LINE SMOOTH",
"244 500 OFFCURVE",
"262 522 OFFCURVE",
"288 522 CURVE SMOOTH",
"314 522 OFFCURVE",
"332 500 OFFCURVE",
"332 466 CURVE",
"544 466 LINE",
"544 612 OFFCURVE",
"442 710 OFFCURVE",
"288 710 CURVE SMOOTH",
"134 710 OFFCURVE",
"32 612 OFFCURVE",
"32 466 CURVE SMOOTH",
"32 234 LINE SMOOTH",
"32 88 OFFCURVE",
"134 -10 OFFCURVE",
"288 -10 CURVE SMOOTH"
);
}
);
width = 573;
},
{
associatedMasterId = "262880E7-CFE1-4BDA-902E-E24798F3240A";
layerId = "4BB53C67-4989-441E-8A0D-7E4F5FC64094";
name = "Medium {91, 100}";
paths = (
{
closed = 1;
nodes = (
"386 -11 OFFCURVE",
"463 65 OFFCURVE",
"463 182 CURVE",
"463 376 LINE",
"266 376 LINE",
"266 293 LINE",
"369 293 LINE",
"369 182 LINE",
"369 115 OFFCURVE",
"330 74 OFFCURVE",
"266 74 CURVE SMOOTH",
"202 74 OFFCURVE",
"163 115 OFFCURVE",
"163 182 CURVE",
"163 518 LINE",
"163 585 OFFCURVE",
"202 626 OFFCURVE",
"266 626 CURVE SMOOTH",
"330 626 OFFCURVE",
"369 585 OFFCURVE",
"369 518 CURVE",
"463 518 LINE",
"463 635 OFFCURVE",
"386 711 OFFCURVE",
"266 711 CURVE SMOOTH",
"146 711 OFFCURVE",
"69 635 OFFCURVE",
"69 518 CURVE",
"69 182 LINE",
"69 65 OFFCURVE",
"146 -11 OFFCURVE",
"266 -11 CURVE SMOOTH"
);
}
);
width = 524;
}
);
unicode = 0047;
},
{
color = 1;
glyphname = H;
lastChange = "2016-10-12 00:56:11 +0000";
layers = (
{
layerId = "262880E7-CFE1-4BDA-902E-E24798F3240A";
paths = (
{
closed = 1;
nodes = (
"422 0 LINE",
"422 700 LINE",
"400 700 LINE",
"400 0 LINE"
);
},
{
closed = 1;
nodes = (
"122 0 LINE",
"122 700 LINE",
"100 700 LINE",
"100 0 LINE"
);
},
{
closed = 1;
nodes = (
"405 340 LINE",
"405 361 LINE",
"117 361 LINE",
"117 340 LINE"
);
}
);
width = 522;
},
{
layerId = "4F25946F-63AC-42D6-8D55-01CF6A99025B";
paths = (
{
closed = 1;
nodes = (
"565 0 LINE",
"565 700 LINE",
"353 700 LINE",
"353 0 LINE"
);
},
{
closed = 1;
nodes = (
"265 0 LINE",
"265 700 LINE",
"53 700 LINE",
"53 0 LINE"
);
},
{
closed = 1;
nodes = (
"369 246 LINE",
"369 434 LINE",
"249 434 LINE",
"249 246 LINE"
);
}
);
width = 618;
}
);
unicode = 0048;
},
{
color = 1;
glyphname = I;
lastChange = "2016-10-12 00:56:11 +0000";
layers = (
{
layerId = "262880E7-CFE1-4BDA-902E-E24798F3240A";
paths = (
{
closed = 1;
nodes = (
"122 0 LINE",
"122 700 LINE",
"100 700 LINE",
"100 0 LINE"
);
}
);
width = 222;
},
{
layerId = "4F25946F-63AC-42D6-8D55-01CF6A99025B";
paths = (
{
closed = 1;
nodes = (
"255 0 LINE",
"255 700 LINE",
"53 700 LINE",
"53 0 LINE"
);
}
);
width = 308;
}
);
unicode = 0049;
},
{
color = 1;
glyphname = J;
lastChange = "2016-10-12 00:56:11 +0000";
layers = (
{
layerId = "262880E7-CFE1-4BDA-902E-E24798F3240A";
paths = (
{
closed = 1;
nodes = (
"317 -11 OFFCURVE",
"377 50 OFFCURVE",
"377 150 CURVE SMOOTH",
"377 700 LINE",
"355 700 LINE",
"355 150 LINE",
"355 64 OFFCURVE",
"303 11 OFFCURVE",
"219 11 CURVE SMOOTH",
"135 11 OFFCURVE",
"83 64 OFFCURVE",
"83 150 CURVE SMOOTH",
"83 195 LINE",
"61 195 LINE",
"61 150 LINE SMOOTH",
"61 50 OFFCURVE",
"121 -11 OFFCURVE",
"219 -11 CURVE SMOOTH"
);
}
);
width = 473;
},
{
layerId = "4F25946F-63AC-42D6-8D55-01CF6A99025B";
paths = (
{
closed = 1;
nodes = (
"412 -10 OFFCURVE",
"512 88 OFFCURVE",
"512 235 CURVE",
"507 702 LINE",
"295 700 LINE",
"300 233 LINE",
"300 200 OFFCURVE",
"284 178 OFFCURVE",
"261 178 CURVE SMOOTH",
"238 178 OFFCURVE",
"222 200 OFFCURVE",
"222 234 CURVE SMOOTH",
"222 290 LINE",
"10 290 LINE",
"10 234 LINE SMOOTH",
"10 88 OFFCURVE",
"110 -10 OFFCURVE",
"261 -10 CURVE SMOOTH"
);
}
);
width = 553;
}
);
unicode = 004A;
},
{
color = 1;
glyphname = K;
lastChange = "2016-10-12 01:24:51 +0000";
layers = (
{
layerId = "262880E7-CFE1-4BDA-902E-E24798F3240A";
paths = (
{
closed = 1;
nodes = (
"432 0 LINE",
"136 350 LINE",
"432 700 LINE",
"406 700 LINE",
"108 350 LINE",
"406 0 LINE"
);
},
{
closed = 1;
nodes = (
"122 0 LINE",
"122 700 LINE",
"100 700 LINE",
"100 0 LINE"
);
}
);
width = 487;
},
{
layerId = "4F25946F-63AC-42D6-8D55-01CF6A99025B";
paths = (
{
closed = 1;
nodes = (
"590 0 LINE",
"413 350 LINE",
"585 700 LINE",
"335 700 LINE",
"193 350 LINE",
"335 0 LINE"
);
},
{
closed = 1;
nodes = (
"265 0 LINE",
"265 700 LINE",
"53 700 LINE",
"53 0 LINE"
);
}
);
width = 593;
},
{
associatedMasterId = "262880E7-CFE1-4BDA-902E-E24798F3240A";
layerId = "52A147BE-A087-4D72-9A5D-908B44B10E17";
name = "Medium {91, 100}";
paths = (
{
closed = 1;
nodes = (
"482 0 LINE",
"215 350 LINE",
"480 700 LINE",
"365 700 LINE",
"100 350 LINE",
"365 0 LINE"
);
},
{
closed = 1;
nodes = (
"176 0 LINE",
"176 700 LINE",
"82 700 LINE",
"82 0 LINE"
);
}
);
width = 527;
}
);
unicode = 004B;
},
{
color = 1;
glyphname = L;
lastChange = "2016-10-12 00:56:11 +0000";
layers = (
{
layerId = "262880E7-CFE1-4BDA-902E-E24798F3240A";
paths = (
{
closed = 1;
nodes = (
"411 0 LINE",
"411 22 LINE",
"122 22 LINE",
"122 700 LINE",
"100 700 LINE",
"100 0 LINE"
);
}
);
width = 464;
},
{
layerId = "4F25946F-63AC-42D6-8D55-01CF6A99025B";
paths = (
{
closed = 1;
nodes = (
"524 0 LINE",
"524 202 LINE",
"265 202 LINE",
"265 700 LINE",
"53 700 LINE",
"53 0 LINE"
);
}
);
width = 536;
}
);
unicode = 004C;
},
{
color = 1;
glyphname = M;
lastChange = "2016-10-12 01:26:13 +0000";
layers = (
{
layerId = "262880E7-CFE1-4BDA-902E-E24798F3240A";
paths = (
{
closed = 1;
nodes = (
"119 0 LINE",
"122 655 LINE",
"279 324 LINE",
"437 655 LINE",
"437 0 LINE",
"458 0 LINE",
"458 700 LINE",
"436 700 LINE",
"279 372 LINE",
"122 700 LINE",
"100 700 LINE",
"100 0 LINE"
);
}
);
width = 558;
},
{
layerId = "4F25946F-63AC-42D6-8D55-01CF6A99025B";
paths = (
{
closed = 1;
nodes = (
"265 0 LINE",
"265 371 LINE",
"347 176 LINE",
"429 371 LINE",
"429 0 LINE",
"641 0 LINE",
"641 698 LINE",
"425 698 LINE",
"347 522 LINE",
"266 702 LINE",
"53 702 LINE",
"53 0 LINE"
);
}
);
width = 694;
},
{
associatedMasterId = "4F25946F-63AC-42D6-8D55-01CF6A99025B";
layerId = "BF6C6FBC-ABCF-4728-B32F-BE7F013B92F9";
name = "Medium {91, 100}";
paths = (
{
closed = 1;
nodes = (
"174 0 LINE",
"176 517 LINE",
"305 268 LINE",
"434 517 LINE",
"434 0 LINE",
"528 0 LINE",
"528 699 LINE",
"432 699 LINE",
"305 437 LINE",
"177 701 LINE",
"82 701 LINE",
"82 0 LINE"
);
}
);
width = 610;
}
);
unicode = 004D;
},
{
color = 1;
glyphname = N;
lastChange = "2016-10-12 01:27:27 +0000";
layers = (
{
layerId = "262880E7-CFE1-4BDA-902E-E24798F3240A";
paths = (
{
closed = 1;
nodes = (
"122 0 LINE",
"122 647 LINE",
"399 0 LINE",
"422 0 LINE",
"422 700 LINE",
"400 700 LINE",
"400 53 LINE",
"123 700 LINE",
"100 700 LINE",
"100 0 LINE"
);
}
);
width = 522;
},
{
layerId = "4F25946F-63AC-42D6-8D55-01CF6A99025B";
paths = (
{
closed = 1;
nodes = (
"265 0 LINE",
"265 284 LINE",
"396 0 LINE",
"585 0 LINE",
"585 700 LINE",
"373 700 LINE",
"373 397 LINE",
"239 700 LINE",
"53 700 LINE",
"53 0 LINE"
);
}
);
width = 638;
},
{
associatedMasterId = "4F25946F-63AC-42D6-8D55-01CF6A99025B";
layerId = "F1D3B2BC-C68C-4FCB-A12D-58715CD4B5EE";
name = "Medium {91, 100}";
paths = (
{
closed = 1;
nodes = (
"176 0 LINE",
"176 469 LINE",
"394 0 LINE",
"484 0 LINE",
"484 700 LINE",
"390 700 LINE",
"390 224 LINE",
"171 700 LINE",
"82 700 LINE",
"82 0 LINE"
);
}
);
width = 566;
}
);
unicode = 004E;
},
{
color = 1;
glyphname = O;
lastChange = "2016-10-12 03:48:14 +0000";
layers = (
{
layerId = "262880E7-CFE1-4BDA-902E-E24798F3240A";
paths = (
{
closed = 1;
nodes = (
"341 -9 OFFCURVE",
"413 60 OFFCURVE",
"413 150 CURVE SMOOTH",
"413 550 LINE SMOOTH",
"413 640 OFFCURVE",
"341 709 OFFCURVE",
"252 709 CURVE SMOOTH",
"163 709 OFFCURVE",
"91 640 OFFCURVE",
"91 550 CURVE SMOOTH",
"91 150 LINE SMOOTH",
"91 60 OFFCURVE",
"163 -9 OFFCURVE",
"252 -9 CURVE SMOOTH"
);
},
{
closed = 1;
nodes = (
"173 11 OFFCURVE",
"113 72 OFFCURVE",
"113 150 CURVE SMOOTH",
"113 550 LINE SMOOTH",
"113 629 OFFCURVE",
"175 690 OFFCURVE",
"252 690 CURVE SMOOTH",
"329 690 OFFCURVE",
"391 629 OFFCURVE",
"391 550 CURVE SMOOTH",
"391 150 LINE SMOOTH",
"391 72 OFFCURVE",
"331 11 OFFCURVE",
"252 11 CURVE SMOOTH"
);
}
);
width = 504;
},
{
layerId = "4F25946F-63AC-42D6-8D55-01CF6A99025B";
paths = (
{
closed = 1;
nodes = (
"448 -10 OFFCURVE",
"552 87 OFFCURVE",
"552 233 CURVE SMOOTH",
"552 467 LINE SMOOTH",
"552 613 OFFCURVE",
"448 710 OFFCURVE",
"292 710 CURVE SMOOTH",
"136 710 OFFCURVE",
"32 613 OFFCURVE",
"32 467 CURVE SMOOTH",
"32 233 LINE SMOOTH",
"32 87 OFFCURVE",
"136 -10 OFFCURVE",
"292 -10 CURVE SMOOTH"
);
},
{
closed = 1;
nodes = (
"263 178 OFFCURVE",
"244 196 OFFCURVE",
"244 223 CURVE SMOOTH",
"244 477 LINE SMOOTH",
"244 504 OFFCURVE",
"263 522 OFFCURVE",
"292 522 CURVE SMOOTH",
"321 522 OFFCURVE",
"340 504 OFFCURVE",
"340 477 CURVE SMOOTH",
"340 223 LINE SMOOTH",
"340 196 OFFCURVE",
"321 178 OFFCURVE",
"292 178 CURVE SMOOTH"
);
}
);
width = 584;
}
);
unicode = 004F;
},
{
color = 1;
glyphname = P;
lastChange = "2016-10-12 00:56:11 +0000";
layers = (
{
layerId = "262880E7-CFE1-4BDA-902E-E24798F3240A";
paths = (
{
closed = 1;
nodes = (
"122 0 LINE",
"122 679 LINE",
"246 679 LINE SMOOTH",
"346 679 OFFCURVE",
"407 616 OFFCURVE",
"407 513 CURVE SMOOTH",
"407 409 OFFCURVE",
"346 346 OFFCURVE",
"246 346 CURVE SMOOTH",
"117 346 LINE",
"117 324 LINE",
"246 325 LINE SMOOTH",
"359 326 OFFCURVE",
"429 397 OFFCURVE",
"429 512 CURVE SMOOTH",
"429 629 OFFCURVE",
"359 700 OFFCURVE",
"246 700 CURVE SMOOTH",
"100 700 LINE",
"100 0 LINE"
);
}
);
width = 493;
},
{
layerId = "4F25946F-63AC-42D6-8D55-01CF6A99025B";
paths = (
{
closed = 1;
nodes = (
"265 0 LINE",
"265 512 LINE",
"294 512 LINE SMOOTH",
"323 512 OFFCURVE",
"343 492 OFFCURVE",
"343 462 CURVE SMOOTH",
"343 432 OFFCURVE",
"323 412 OFFCURVE",
"294 412 CURVE SMOOTH",
"249 412 LINE",
"249 233 LINE",
"324 233 LINE SMOOTH",
"463 233 OFFCURVE",
"555 333 OFFCURVE",
"555 483 CURVE SMOOTH",
"555 613 OFFCURVE",
"463 700 OFFCURVE",
"324 700 CURVE SMOOTH",
"53 700 LINE",
"53 0 LINE"
);
}
);
width = 568;
}
);
unicode = 0050;
},
{
color = 1;
glyphname = Q;
lastChange = "2016-10-12 00:56:11 +0000";
layers = (
{
layerId = "262880E7-CFE1-4BDA-902E-E24798F3240A";
paths = (
{
closed = 1;
nodes = (
"341 -11 OFFCURVE",
"413 60 OFFCURVE",
"413 150 CURVE SMOOTH",
"413 550 LINE SMOOTH",
"413 640 OFFCURVE",
"341 711 OFFCURVE",
"252 711 CURVE SMOOTH",
"163 711 OFFCURVE",
"91 640 OFFCURVE",
"91 550 CURVE SMOOTH",
"91 150 LINE SMOOTH",
"91 60 OFFCURVE",
"163 -11 OFFCURVE",
"252 -11 CURVE SMOOTH"
);
},
{
closed = 1;
nodes = (
"173 11 OFFCURVE",
"113 72 OFFCURVE",
"113 150 CURVE SMOOTH",
"113 550 LINE SMOOTH",
"113 629 OFFCURVE",
"175 690 OFFCURVE",
"252 690 CURVE SMOOTH",
"329 690 OFFCURVE",
"391 629 OFFCURVE",
"391 550 CURVE SMOOTH",
"391 150 LINE SMOOTH",
"391 72 OFFCURVE",
"331 11 OFFCURVE",
"252 11 CURVE SMOOTH"
);
}
);
width = 504;
},
{
layerId = "4F25946F-63AC-42D6-8D55-01CF6A99025B";
paths = (
{
closed = 1;
nodes = (
"442 -10 OFFCURVE",
"544 87 OFFCURVE",
"544 233 CURVE SMOOTH",
"544 467 LINE SMOOTH",
"544 613 OFFCURVE",
"442 710 OFFCURVE",
"288 710 CURVE SMOOTH",
"134 710 OFFCURVE",
"32 613 OFFCURVE",
"32 467 CURVE SMOOTH",
"32 233 LINE SMOOTH",
"32 87 OFFCURVE",
"134 -10 OFFCURVE",
"288 -10 CURVE SMOOTH"
);
},
{
closed = 1;
nodes = (
"262 178 OFFCURVE",
"244 196 OFFCURVE",
"244 223 CURVE SMOOTH",
"244 477 LINE SMOOTH",
"244 504 OFFCURVE",
"262 522 OFFCURVE",
"288 522 CURVE SMOOTH",
"314 522 OFFCURVE",
"332 504 OFFCURVE",
"332 477 CURVE SMOOTH",
"332 223 LINE SMOOTH",
"332 196 OFFCURVE",
"314 178 OFFCURVE",
"288 178 CURVE SMOOTH"
);
}
);
width = 576;
}
);
unicode = 0051;
},
{
color = 1;
glyphname = R;
lastChange = "2016-10-12 01:38:11 +0000";
layers = (
{
layerId = "262880E7-CFE1-4BDA-902E-E24798F3240A";
paths = (
{
closed = 1;
nodes = (
"122 0 LINE",
"122 679 LINE",
"249 679 LINE SMOOTH",
"349 679 OFFCURVE",
"410 616 OFFCURVE",
"410 512 CURVE SMOOTH",
"410 408 OFFCURVE",
"349 344 OFFCURVE",
"249 344 CURVE SMOOTH",
"117 344 LINE",
"117 322 LINE",
"249 323 LINE SMOOTH",
"362 324 OFFCURVE",
"432 395 OFFCURVE",
"432 511 CURVE SMOOTH",
"432 628 OFFCURVE",
"362 700 OFFCURVE",
"249 700 CURVE SMOOTH",
"100 700 LINE",
"100 0 LINE"
);
},
{
closed = 1;
nodes = (
"411 0 LINE",
"269 343 LINE",
"249 335 LINE",
"387 0 LINE"
);
}
);
width = 498;
},
{
layerId = "4F25946F-63AC-42D6-8D55-01CF6A99025B";
paths = (
{
closed = 1;
nodes = (
"265 0 LINE",
"265 512 LINE",
"307 512 LINE SMOOTH",
"336 512 OFFCURVE",
"356 492 OFFCURVE",
"356 462 CURVE SMOOTH",
"356 432 OFFCURVE",
"336 412 OFFCURVE",
"307 412 CURVE SMOOTH",
"249 412 LINE",
"249 259 LINE",
"399 259 LINE SMOOTH",
"508 259 OFFCURVE",
"580 343 OFFCURVE",
"580 469 CURVE SMOOTH",
"580 608 OFFCURVE",
"496 700 OFFCURVE",
"369 700 CURVE SMOOTH",
"53 700 LINE",
"53 0 LINE"
);
},
{
closed = 1;
nodes = (
"605 0 LINE",
"432 320 LINE",
"226 320 LINE",
"367 0 LINE"
);
}
);
width = 610;
},
{
associatedMasterId = "262880E7-CFE1-4BDA-902E-E24798F3240A";
layerId = "50450382-90D1-4987-8DDE-9A95794F2969";
name = "Medium {91, 100}";
paths = (
{
closed = 1;
nodes = (
"176 0 LINE",
"176 616 LINE",
"268 616 LINE SMOOTH",
"341 616 OFFCURVE",
"386 569 OFFCURVE",
"386 493 CURVE SMOOTH",
"386 417 OFFCURVE",
"341 370 OFFCURVE",
"268 370 CURVE SMOOTH",
"167 370 LINE",
"167 281 LINE",
"279 281 LINE SMOOTH",
"404 281 OFFCURVE",
"481 366 OFFCURVE",
"481 494 CURVE SMOOTH",
"481 626 OFFCURVE",
"400 700 OFFCURVE",
"267.994 700 CURVE SMOOTH",
"82 700 LINE",
"82 0 LINE"
);
},
{
closed = 1;
nodes = (
"484 0 LINE",
"327 334 LINE",
"236 329 LINE",
"379 0 LINE"
);
}
);
width = 541;
}
);
unicode = 0052;
},
{
color = 1;
glyphname = S;
lastChange = "2016-10-12 03:48:58 +0000";
layers = (
{
layerId = "262880E7-CFE1-4BDA-902E-E24798F3240A";
paths = (
{
closed = 1;
nodes = (
"331 -9 OFFCURVE",
"395 50 OFFCURVE",
"395 149 CURVE SMOOTH",
"395 255 OFFCURVE",
"322 307 OFFCURVE",
"240 361 CURVE SMOOTH",
"159 414 OFFCURVE",
"95 459 OFFCURVE",
"95 552 CURVE SMOOTH",
"95 636 OFFCURVE",
"147 690 OFFCURVE",
"231 690 CURVE SMOOTH",
"315 690 OFFCURVE",
"367 637 OFFCURVE",
"367 550 CURVE SMOOTH",
"367 500 LINE",
"389 500 LINE",
"389 550 LINE SMOOTH",
"389 650 OFFCURVE",
"329 709 OFFCURVE",
"231 709 CURVE SMOOTH",
"133 709 OFFCURVE",
"73 649 OFFCURVE",
"73 553 CURVE SMOOTH",
"73 446 OFFCURVE",
"148 394 OFFCURVE",
"226 342 CURVE SMOOTH",
"303 291 OFFCURVE",
"373 244 OFFCURVE",
"373 148 CURVE SMOOTH",
"373 63 OFFCURVE",
"317 11 OFFCURVE",
"235 11 CURVE SMOOTH",
"147 11 OFFCURVE",
"101 64 OFFCURVE",
"101 150 CURVE SMOOTH",
"101 200 LINE",
"79 200 LINE",
"79 150 LINE SMOOTH",
"79 50 OFFCURVE",
"134 -9 OFFCURVE",
"236 -9 CURVE SMOOTH"
);
}
);
width = 467;
},
{
layerId = "4F25946F-63AC-42D6-8D55-01CF6A99025B";
paths = (
{
closed = 1;
nodes = (
"410 -10 OFFCURVE",
"500 71 OFFCURVE",
"500 194 CURVE SMOOTH",
"500 304 OFFCURVE",
"428 376 OFFCURVE",
"322 419 CURVE SMOOTH",
"268 441 OFFCURVE",
"220 449 OFFCURVE",
"220 484 CURVE SMOOTH",
"220 504 OFFCURVE",
"235 522 OFFCURVE",
"264 522 CURVE SMOOTH",
"291 522 OFFCURVE",
"308 505 OFFCURVE",
"308 477 CURVE SMOOTH",
"308 468 LINE",
"500 476 LINE",
"500 487 LINE SMOOTH",
"500 621 OFFCURVE",
"401 710 OFFCURVE",
"258 710 CURVE SMOOTH",
"119 710 OFFCURVE",
"28 627 OFFCURVE",
"28 506 CURVE SMOOTH",
"28 399 OFFCURVE",
"99 322 OFFCURVE",
"206 281 CURVE SMOOTH",
"250 264 OFFCURVE",
"308 251 OFFCURVE",
"308 217 CURVE SMOOTH",
"308 199 OFFCURVE",
"293 178 OFFCURVE",
"264 178 CURVE SMOOTH",
"237 178 OFFCURVE",
"220 195 OFFCURVE",
"220 223 CURVE SMOOTH",
"220 232 LINE",
"18 224 LINE",
"18 213 LINE SMOOTH",
"18 79 OFFCURVE",
"117 -10 OFFCURVE",
"267 -10 CURVE SMOOTH"
);
}
);
width = 522;
}
);
unicode = 0053;
},
{
color = 1;
glyphname = T;
lastChange = "2016-10-12 00:56:11 +0000";
layers = (
{
layerId = "262880E7-CFE1-4BDA-902E-E24798F3240A";
paths = (
{
closed = 1;
nodes = (
"221 0 LINE",
"221 689 LINE",
"199 689 LINE",
"199 0 LINE"
);
},
{
closed = 1;
nodes = (
"375 679 LINE",
"375 700 LINE",
"53 700 LINE",
"53 679 LINE"
);
}
);
width = 428;
},
{
layerId = "4F25946F-63AC-42D6-8D55-01CF6A99025B";
paths = (
{
closed = 1;
nodes = (
"372 0 LINE",
"372 606 LINE",
"160 606 LINE",
"160 0 LINE"
);
},
{
closed = 1;
nodes = (
"520 500 LINE",
"520 700 LINE",
"12 700 LINE",
"12 500 LINE"
);
}
);
width = 532;
}
);
unicode = 0054;
},
{
color = 1;
glyphname = U;
lastChange = "2016-10-12 03:49:03 +0000";
layers = (
{
layerId = "262880E7-CFE1-4BDA-902E-E24798F3240A";
paths = (
{
closed = 1;
nodes = (
"356 -9 OFFCURVE",
"418 50 OFFCURVE",
"418 150 CURVE SMOOTH",
"418 700 LINE",
"396 700 LINE",
"396 150 LINE SMOOTH",
"396 64 OFFCURVE",
"344 11 OFFCURVE",
"257 11 CURVE SMOOTH",
"170 11 OFFCURVE",
"118 64 OFFCURVE",
"118 150 CURVE SMOOTH",
"118 700 LINE",
"96 700 LINE",
"96 150 LINE SMOOTH",
"96 50 OFFCURVE",
"158 -9 OFFCURVE",
"257 -9 CURVE SMOOTH"
);
}
);
width = 514;
},
{
layerId = "4F25946F-63AC-42D6-8D55-01CF6A99025B";
paths = (
{
closed = 1;
nodes = (
"453 -10 OFFCURVE",
"555 88 OFFCURVE",
"555 234 CURVE SMOOTH",
"555 700 LINE",
"343 700 LINE",
"343 234 LINE SMOOTH",
"343 200 OFFCURVE",
"325 178 OFFCURVE",
"299 178 CURVE SMOOTH",
"273 178 OFFCURVE",
"255 200 OFFCURVE",
"255 234 CURVE SMOOTH",
"255 700 LINE",
"43 700 LINE",
"43 234 LINE SMOOTH",
"43 88 OFFCURVE",
"145 -10 OFFCURVE",
"299 -10 CURVE SMOOTH"
);
}
);
width = 598;
}
);
unicode = 0055;
},
{
color = 1;
glyphname = V;
lastChange = "2016-10-12 01:28:02 +0000";
layers = (
{
layerId = "262880E7-CFE1-4BDA-902E-E24798F3240A";
paths = (
{
closed = 1;
nodes = (
"245 0 LINE",
"410 700 LINE",
"388 700 LINE",
"234 40 LINE",
"80 700 LINE",
"58 700 LINE",
"223 0 LINE"
);
}
);
width = 468;
},
{
layerId = "4F25946F-63AC-42D6-8D55-01CF6A99025B";
paths = (
{
closed = 1;
nodes = (
"386 0 LINE",
"556 700 LINE",
"341 700 LINE",
"280 300 LINE",
"219 700 LINE",
"4 700 LINE",
"174 0 LINE"
);
}
);
width = 560;
},
{
associatedMasterId = "262880E7-CFE1-4BDA-902E-E24798F3240A";
layerId = "4E067D8C-FFB4-48BF-AEBE-68DF3842147F";
name = "Medium {91,100}";
paths = (
{
closed = 1;
nodes = (
"299 0 LINE",
"465 700 LINE",
"370 700 LINE",
"251 147 LINE",
"133 700 LINE",
"37 700 LINE",
"204 0 LINE"
);
}
);
width = 503;
}
);
unicode = 0056;
},
{
color = 1;
glyphname = W;
lastChange = "2016-10-12 01:29:33 +0000";
layers = (
{
layerId = "262880E7-CFE1-4BDA-902E-E24798F3240A";
paths = (
{
closed = 1;
nodes = (
"207 0 LINE",
"321 648 LINE",
"435 0 LINE",
"457 0 LINE",
"582 700 LINE",
"560 700 LINE",
"446 52 LINE",
"332 700 LINE",
"310 700 LINE",
"196 52 LINE",
"82 700 LINE",
"60 700 LINE",
"185 0 LINE"
);
}
);
width = 642;
},
{
layerId = "4F25946F-63AC-42D6-8D55-01CF6A99025B";
paths = (
{
closed = 1;
nodes = (
"378 1 LINE",
"414 287 LINE",
"450 1 LINE",
"668 1 LINE",
"822 700 LINE",
"606 700 LINE",
"564 383 LINE",
"522 699 LINE",
"306 699 LINE",
"264 383 LINE",
"222 700 LINE",
"6 700 LINE",
"160 1 LINE"
);
}
);
width = 828;
},
{
associatedMasterId = "4F25946F-63AC-42D6-8D55-01CF6A99025B";
layerId = "11607437-4DCD-4C94-9EDA-1AD54BE1AE48";
name = "Medium { 91, 100}";
paths = (
{
closed = 1;
nodes = (
"282 0 LINE",
"356 471 LINE",
"431 0 LINE",
"527 0 LINE",
"663 700 LINE",
"567 700 LINE",
"483 206 LINE",
"404 700 LINE",
"308 700 LINE",
"230 206 LINE",
"145 700 LINE",
"49 700 LINE",
"186 0 LINE"
);
}
);
width = 713;
}
);
unicode = 0057;
},
{
color = 1;
glyphname = X;
lastChange = "2016-10-12 01:29:46 +0000";
layers = (
{
layerId = "262880E7-CFE1-4BDA-902E-E24798F3240A";
paths = (
{
closed = 1;
nodes = (
"368 700 LINE",
"391 700 LINE",
"82 0 LINE",
"59 0 LINE"
);
},
{
closed = 1;
nodes = (
"59 700 LINE",
"82 700 LINE",
"391 0 LINE",
"368 0 LINE"
);
}
);
width = 450;
},
{
layerId = "4F25946F-63AC-42D6-8D55-01CF6A99025B";
paths = (
{
closed = 1;
nodes = (
"344 700 LINE",
"582 700 LINE",
"242 0 LINE",
"4 0 LINE"
);
},
{
closed = 1;
nodes = (
"4 700 LINE",
"242 700 LINE",
"582 0 LINE",
"344 0 LINE"
);
}
);
width = 586;
}
);
unicode = 0058;
},
{
color = 1;
glyphname = Y;
lastChange = "2016-10-12 00:56:11 +0000";
layers = (
{
layerId = "262880E7-CFE1-4BDA-902E-E24798F3240A";
paths = (
{
closed = 1;
nodes = (
"388 700 LINE",
"363 700 LINE",
"221 379 LINE",
"80 700 LINE",
"54 700 LINE",
"221 328 LINE"
);
},
{
closed = 1;
nodes = (
"232 0 LINE",
"232 350 LINE",
"210 350 LINE",
"210 0 LINE"
);
}
);
width = 442;
},
{
layerId = "4F25946F-63AC-42D6-8D55-01CF6A99025B";
paths = (
{
closed = 1;
nodes = (
"600 700 LINE",
"374 700 LINE",
"305 539 LINE",
"235 700 LINE",
"-1 700 LINE",
"304 12 LINE"
);
},
{
closed = 1;
nodes = (
"412 0 LINE",
"412 350 LINE",
"196 350 LINE",
"196 0 LINE"
);
}
);
width = 600;
}
);
unicode = 0059;
},
{
color = 1;
glyphname = Z;
lastChange = "2016-10-12 00:56:11 +0000";
layers = (
{
layerId = "262880E7-CFE1-4BDA-902E-E24798F3240A";
paths = (
{
closed = 1;
nodes = (
"372 0 LINE",
"372 22 LINE",
"88 22 LINE",
"388 700 LINE",
"72 700 LINE",
"72 679 LINE",
"356 679 LINE",
"56 0 LINE"
);
}
);
width = 444;
},
{
layerId = "4F25946F-63AC-42D6-8D55-01CF6A99025B";
paths = (
{
closed = 1;
nodes = (
"519 0 LINE",
"519 198 LINE",
"329 198 LINE",
"519 700 LINE",
"54 700 LINE",
"54 502 LINE",
"249 502 LINE",
"51 0 LINE"
);
}
);
width = 570;
}
);
unicode = 005A;
},
{
color = 1;
glyphname = a;
lastChange = "2016-10-12 01:12:29 +0000";
layers = (
{
layerId = "262880E7-CFE1-4BDA-902E-E24798F3240A";
paths = (
{
closed = 1;
nodes = (
"324 -11 OFFCURVE",
"383 52 OFFCURVE",
"383 152 CURVE SMOOTH",
"383 348 LINE SMOOTH",
"383 448 OFFCURVE",
"324 511 OFFCURVE",
"228 511 CURVE SMOOTH",
"131 511 OFFCURVE",
"68 450 OFFCURVE",
"68 350 CURVE SMOOTH",
"68 150 LINE SMOOTH",
"68 50 OFFCURVE",
"131 -11 OFFCURVE",
"228 -11 CURVE SMOOTH"
);
},
{
closed = 1;
nodes = (
"142 11 OFFCURVE",
"90 64 OFFCURVE",
"90 150 CURVE SMOOTH",
"90 350 LINE SMOOTH",
"90 436 OFFCURVE",
"144 490 OFFCURVE",
"229 490 CURVE SMOOTH",
"314 490 OFFCURVE",
"368 436 OFFCURVE",
"368 350 CURVE SMOOTH",
"368 150 LINE SMOOTH",
"368 64 OFFCURVE",
"316 11 OFFCURVE",
"229 11 CURVE SMOOTH"
);
},
{
closed = 1;
nodes = (
"390 0 LINE",
"390 500 LINE",
"368 500 LINE",
"368 0 LINE"
);
}
);
width = 470;
},
{
layerId = "4F25946F-63AC-42D6-8D55-01CF6A99025B";
paths = (
{
closed = 1;
nodes = (
"310 0 OFFCURVE",
"490 138 OFFCURVE",
"490 178 CURVE SMOOTH",
"490 212 LINE SMOOTH",
"490 253 OFFCURVE",
"382 500 OFFCURVE",
"188 500 CURVE",
"85 500 OFFCURVE",
"28 449 OFFCURVE",
"28 350 CURVE SMOOTH",
"28 160 LINE SMOOTH",
"28 69 OFFCURVE",
"68 0 OFFCURVE",
"167 0 CURVE SMOOTH"
);
},
{
closed = 1;
nodes = (
"245 171 OFFCURVE",
"236 181 OFFCURVE",
"236 198 CURVE SMOOTH",
"236 312 LINE SMOOTH",
"236 329 OFFCURVE",
"245 339 OFFCURVE",
"261 339 CURVE SMOOTH",
"277 339 OFFCURVE",
"286 329 OFFCURVE",
"286 312 CURVE SMOOTH",
"286 198 LINE SMOOTH",
"286 181 OFFCURVE",
"277 171 OFFCURVE",
"261 171 CURVE SMOOTH"
);
},
{
closed = 1;
nodes = (
"494 0 LINE",
"494 500 LINE",
"286 500 LINE",
"286 0 LINE"
);
}
);
width = 536;
},
{
associatedMasterId = "4F25946F-63AC-42D6-8D55-01CF6A99025B";
layerId = "34363AD6-2DE4-4D56-BF78-9F8D1CBAD124";
name = "Medium {91,100}";
paths = (
{
closed = 1;
nodes = (
"352 -7 OFFCURVE",
"421 68 OFFCURVE",
"421 184 CURVE SMOOTH",
"421 305 LINE SMOOTH",
"421 421 OFFCURVE",
"352 511 OFFCURVE",
"231 511 CURVE SMOOTH",
"132 511 OFFCURVE",
"66 450 OFFCURVE",
"66 350 CURVE SMOOTH",
"66 154 LINE SMOOTH",
"66 54 OFFCURVE",
"132 -7 OFFCURVE",
"236 -7 CURVE SMOOTH"
);
},
{
closed = 1;
nodes = (
"194 72 OFFCURVE",
"158 108 OFFCURVE",
"158 168 CURVE SMOOTH",
"158 336 LINE SMOOTH",
"158 396 OFFCURVE",
"194 433 OFFCURVE",
"254 433 CURVE SMOOTH",
"314 433 OFFCURVE",
"350 396 OFFCURVE",
"350 336 CURVE SMOOTH",
"350 168 LINE SMOOTH",
"350 108 OFFCURVE",
"314 72 OFFCURVE",
"254 72 CURVE SMOOTH"
);
},
{
closed = 1;
nodes = (
"442 0 LINE",
"442 500 LINE",
"350 500 LINE",
"350 0 LINE"
);
}
);
width = 495;
}
);
unicode = 0061;
},
{
color = 1;
glyphname = b;
lastChange = "2016-10-12 01:07:20 +0000";
layers = (
{
layerId = "262880E7-CFE1-4BDA-902E-E24798F3240A";
paths = (
{
closed = 1;
nodes = (
"342 -11 OFFCURVE",
"402 50 OFFCURVE",
"402 150 CURVE SMOOTH",
"402 350 LINE SMOOTH",
"402 450 OFFCURVE",
"342 511 OFFCURVE",
"244 511 CURVE SMOOTH",
"146 511 OFFCURVE",
"82 448 OFFCURVE",
"82 348 CURVE SMOOTH",
"82 152 LINE SMOOTH",
"82 52 OFFCURVE",
"146 -11 OFFCURVE",
"244 -11 CURVE SMOOTH"
);
},
{
closed = 1;
nodes = (
"102 0 LINE",
"102 700 LINE",
"80 700 LINE",
"80 0 LINE"
);
},
{
closed = 1;
nodes = (
"155 11 OFFCURVE",
"102 64 OFFCURVE",
"102 150 CURVE SMOOTH",
"102 350 LINE SMOOTH",
"102 437 OFFCURVE",
"155 490 OFFCURVE",
"241 490 CURVE SMOOTH",
"327 490 OFFCURVE",
"380 437 OFFCURVE",
"380 350 CURVE SMOOTH",
"380 150 LINE SMOOTH",
"380 64 OFFCURVE",
"327 11 OFFCURVE",
"241 11 CURVE SMOOTH"
);
}
);
width = 471;
},
{
layerId = "4F25946F-63AC-42D6-8D55-01CF6A99025B";
paths = (
{
closed = 1;
nodes = (
"468 0 OFFCURVE",
"508 69 OFFCURVE",
"508 160 CURVE SMOOTH",
"508 350 LINE SMOOTH",
"508 441 OFFCURVE",
"460 510 OFFCURVE",
"369 510 CURVE",
"238 510 OFFCURVE",
"96 358 OFFCURVE",
"96 247 CURVE SMOOTH",
"96 183 LINE SMOOTH",
"96 142 OFFCURVE",
"226 0 OFFCURVE",
"369 0 CURVE SMOOTH"
);
},
{
closed = 1;
nodes = (
"250 0 LINE",
"250 700 LINE",
"42 700 LINE",
"42 0 LINE"
);
},
{
closed = 1;
nodes = (
"259 171 OFFCURVE",
"250 181 OFFCURVE",
"250 198 CURVE SMOOTH",
"250 312 LINE SMOOTH",
"250 329 OFFCURVE",
"259 339 OFFCURVE",
"275 339 CURVE SMOOTH",
"291 339 OFFCURVE",
"300 329 OFFCURVE",
"300 312 CURVE SMOOTH",
"300 198 LINE SMOOTH",
"300 181 OFFCURVE",
"291 171 OFFCURVE",
"275 171 CURVE SMOOTH"
);
}
);
width = 537;
},
{
associatedMasterId = "4F25946F-63AC-42D6-8D55-01CF6A99025B";
layerId = "54B30DE3-E916-493E-A413-AFAAECF48E38";
name = "Medium {91, 100}";
paths = (
{
closed = 1;
nodes = (
"382 -7 OFFCURVE",
"442 54 OFFCURVE",
"442 154 CURVE SMOOTH",
"442 350 LINE SMOOTH",
"442 450 OFFCURVE",
"378 511 OFFCURVE",
"273 511 CURVE SMOOTH",
"158 511 OFFCURVE",
"87 436 OFFCURVE",
"87 320 CURVE SMOOTH",
"87 184 LINE SMOOTH",
"87 68 OFFCURVE",
"159 -7 OFFCURVE",
"276 -7 CURVE SMOOTH"
);
},
{
closed = 1;
nodes = (
"158 0 LINE",
"158 700 LINE",
"66 700 LINE",
"66 0 LINE"
);
},
{
closed = 1;
nodes = (
"194 72 OFFCURVE",
"158 108 OFFCURVE",
"158 168 CURVE SMOOTH",
"158 336 LINE SMOOTH",
"158 396 OFFCURVE",
"194 433 OFFCURVE",
"254 433 CURVE SMOOTH",
"314 433 OFFCURVE",
"350 396 OFFCURVE",
"350 336 CURVE SMOOTH",
"350 168 LINE SMOOTH",
"350 108 OFFCURVE",
"314 72 OFFCURVE",
"254 72 CURVE SMOOTH"
);
}
);
width = 496;
}
);
unicode = 0062;
},
{
color = 1;
glyphname = c;
lastChange = "2016-10-12 03:53:48 +0000";
layers = (
{
layerId = "262880E7-CFE1-4BDA-902E-E24798F3240A";
paths = (
{
closed = 1;
nodes = (
"328 -9 OFFCURVE",
"390 50 OFFCURVE",
"390 150 CURVE SMOOTH",
"390 153 LINE",
"368 153 LINE",
"368 150 LINE SMOOTH",
"368 64 OFFCURVE",
"316 11 OFFCURVE",
"229 11 CURVE SMOOTH",
"142 11 OFFCURVE",
"90 64 OFFCURVE",
"90 150 CURVE SMOOTH",
"90 350 LINE SMOOTH",
"90 437 OFFCURVE",
"144 490 OFFCURVE",
"229 490 CURVE SMOOTH",
"314 490 OFFCURVE",
"368 437 OFFCURVE",
"368 350 CURVE SMOOTH",
"368 348 LINE",
"390 348 LINE",
"390 350 LINE SMOOTH",
"390 450 OFFCURVE",
"328 509 OFFCURVE",
"229 509 CURVE SMOOTH",
"130 509 OFFCURVE",
"68 450 OFFCURVE",
"68 350 CURVE SMOOTH",
"68 150 LINE SMOOTH",
"68 50 OFFCURVE",
"130 -9 OFFCURVE",
"229 -9 CURVE SMOOTH"
);
}
);
width = 441;
},
{
layerId = "4F25946F-63AC-42D6-8D55-01CF6A99025B";
paths = (
{
closed = 1;
nodes = (
"406 -8 OFFCURVE",
"480 66 OFFCURVE",
"491 231 CURVE",
"491 233 LINE",
"279 233 LINE",
"279 188 LINE SMOOTH",
"279 171 OFFCURVE",
"270 161 OFFCURVE",
"254 161 CURVE SMOOTH",
"238 161 OFFCURVE",
"229 171 OFFCURVE",
"229 188 CURVE",
"229 322 LINE",
"229 339 OFFCURVE",
"238 349 OFFCURVE",
"254 349 CURVE SMOOTH",
"270 349 OFFCURVE",
"279 339 OFFCURVE",
"279 322 CURVE",
"279 277 LINE",
"491 277 LINE",
"491 279 LINE",
"489 437 OFFCURVE",
"415 508 OFFCURVE",
"253 508 CURVE SMOOTH",
"90 508 OFFCURVE",
"17 430 OFFCURVE",
"17 256 CURVE SMOOTH",
"17 247 LINE SMOOTH",
"17 71 OFFCURVE",
"90 -8 OFFCURVE",
"252 -8 CURVE SMOOTH"
);
}
);
width = 507;
}
);
unicode = 0063;
},
{
color = 1;
glyphname = e;
lastChange = "2016-10-12 03:53:58 +0000";
layers = (
{
layerId = "262880E7-CFE1-4BDA-902E-E24798F3240A";
paths = (
{
closed = 1;
nodes = (
"328 -9 OFFCURVE",
"390 50 OFFCURVE",
"390 150 CURVE SMOOTH",
"390 154 LINE",
"368 154 LINE",
"368 150 LINE SMOOTH",
"368 64 OFFCURVE",
"316 11 OFFCURVE",
"229 11 CURVE SMOOTH",
"142 11 OFFCURVE",
"90 64 OFFCURVE",
"90 150 CURVE SMOOTH",
"90 350 LINE SMOOTH",
"90 437 OFFCURVE",
"144 490 OFFCURVE",
"229 490 CURVE SMOOTH",
"314 490 OFFCURVE",
"368 437 OFFCURVE",
"368 350 CURVE SMOOTH",
"368 261 LINE",
"85 261 LINE",
"85 240 LINE",
"390 240 LINE",
"390 350 LINE SMOOTH",
"390 450 OFFCURVE",
"328 509 OFFCURVE",
"229 509 CURVE SMOOTH",
"130 509 OFFCURVE",
"68 450 OFFCURVE",
"68 350 CURVE SMOOTH",
"68 150 LINE SMOOTH",
"68 50 OFFCURVE",
"130 -9 OFFCURVE",
"229 -9 CURVE SMOOTH"
);
}
);
width = 453;
},
{
layerId = "4F25946F-63AC-42D6-8D55-01CF6A99025B";
paths = (
{
closed = 1;
nodes = (
"407 -8 OFFCURVE",
"481 55 OFFCURVE",
"491 198 CURVE",
"491 198 LINE",
"279 198 LINE",
"279 188 LINE SMOOTH",
"279 171 OFFCURVE",
"270 161 OFFCURVE",
"254 161 CURVE SMOOTH",
"238 161 OFFCURVE",
"229 171 OFFCURVE",
"229 188 CURVE SMOOTH",
"229 322 LINE SMOOTH",
"229 339 OFFCURVE",
"238 349 OFFCURVE",
"254 349 CURVE SMOOTH",
"270 349 OFFCURVE",
"279 339 OFFCURVE",
"279 322 CURVE SMOOTH",
"279 279 LINE",
"218 279 LINE",
"218 231 LINE",
"491 231 LINE",
"491 262 LINE",
"489 432 OFFCURVE",
"415 508 OFFCURVE",
"253 508 CURVE SMOOTH",
"90 508 OFFCURVE",
"17 430 OFFCURVE",
"17 256 CURVE SMOOTH",
"17 247 LINE SMOOTH",
"17 71 OFFCURVE",
"90 -8 OFFCURVE",
"252 -8 CURVE SMOOTH"
);
}
);
width = 509;
},
{
associatedMasterId = "21D0BE0D-9149-477D-850E-37608F5C3F7D";
layerId = "9A0AB742-A632-45CA-9AC5-19443DBADF5E";
name = "DemiBold {119,100}";
paths = (
{
closed = 1;
nodes = (
"370 -9 OFFCURVE",
"444 51 OFFCURVE",
"447 152 CURVE",
"447 153 LINE",
"324 153 LINE",
"324 150 LINE SMOOTH",
"324 118 OFFCURVE",
"295 99 OFFCURVE",
"247 99 CURVE SMOOTH",
"200 99 OFFCURVE",
"171 126 OFFCURVE",
"171 169 CURVE SMOOTH",
"171 333 LINE SMOOTH",
"171 377 OFFCURVE",
"200 404 OFFCURVE",
"247 404 CURVE SMOOTH",
"295 404 OFFCURVE",
"324 377 OFFCURVE",
"324 333 CURVE SMOOTH",
"324 297 LINE",
"146 297 LINE",
"146 208 LINE",
"447 208 LINE",
"447 318 LINE",
"446 438 OFFCURVE",
"372 509 OFFCURVE",
"247 509 CURVE SMOOTH",
"121 509 OFFCURVE",
"47 438 OFFCURVE",
"47 317 CURVE SMOOTH",
"47 184 LINE SMOOTH",
"47 62 OFFCURVE",
"121 -9 OFFCURVE",
"247 -9 CURVE SMOOTH"
);
}
);
width = 491;
}
);
unicode = 0065;
},
{
color = 1;
glyphname = f;
lastChange = "2016-10-12 00:56:11 +0000";
layers = (
{
associatedMasterId = "262880E7-CFE1-4BDA-902E-E24798F3240A";
layerId = "2A54E209-1ED7-4A8E-ADE2-3C776EC03571";
name = "Brace {120,100}";
paths = (
{
closed = 1;
nodes = (
"200 4 LINE",
"200 538 LINE",
"200 579 OFFCURVE",
"220 593 OFFCURVE",
"282 593 CURVE",
"282 701 LINE",
"160 705 OFFCURVE",
"75 681 OFFCURVE",
"75 549 CURVE",
"75 4 LINE"
);
},
{
closed = 1;
nodes = (
"278 396 LINE",
"278 500 LINE",
"18 500 LINE",
"18 396 LINE"
);
}
);
width = 291;
},
{
associatedMasterId = "262880E7-CFE1-4BDA-902E-E24798F3240A";
layerId = "7166BF04-FB6F-438D-9CD7-6ADA982C4DAC";
name = "Brace {120,100}";
paths = (
{
closed = 1;
nodes = (
"200 4 LINE",
"200 538 LINE",
"200 579 OFFCURVE",
"220 593 OFFCURVE",
"282 593 CURVE",
"282 701 LINE",
"160 705 OFFCURVE",
"75 681 OFFCURVE",
"75 549 CURVE",
"75 4 LINE"
);
},
{
closed = 1;
nodes = (
"278 396 LINE",
"278 500 LINE",
"18 500 LINE",
"18 396 LINE"
);
}
);
width = 291;
},
{
layerId = "262880E7-CFE1-4BDA-902E-E24798F3240A";
paths = (
{
closed = 1;
nodes = (
"125 0 LINE",
"125 550 LINE SMOOTH",
"125 637 OFFCURVE",
"178 690 OFFCURVE",
"264 690 CURVE",
"264 711 LINE",
"164 711 OFFCURVE",
"103 650 OFFCURVE",
"103 550 CURVE SMOOTH",
"103 0 LINE"
);
},
{
closed = 1;
nodes = (
"234 479 LINE",
"234 500 LINE",
"34 500 LINE",
"34 479 LINE"
);
}
);
width = 268;
},
{
associatedMasterId = "262880E7-CFE1-4BDA-902E-E24798F3240A";
layerId = "1035E12E-5963-44BA-8DB8-699EB95B285B";
name = "Brace {120,100}";
paths = (
{
closed = 1;
nodes = (
"200 4 LINE",
"200 538 LINE",
"200 579 OFFCURVE",
"220 593 OFFCURVE",
"282 593 CURVE",
"282 701 LINE",
"160 705 OFFCURVE",
"75 681 OFFCURVE",
"75 549 CURVE",
"75 4 LINE"
);
},
{
closed = 1;
nodes = (
"278 396 LINE",
"278 500 LINE",
"18 500 LINE",
"18 396 LINE"
);
}
);
width = 291;
},
{
layerId = "4F25946F-63AC-42D6-8D55-01CF6A99025B";
paths = (
{
closed = 1;
nodes = (
"272 8 LINE",
"272 527 LINE",
"272 547 OFFCURVE",
"284 551 OFFCURVE",
"306 551 CURVE",
"306 693 LINE",
"166 700 OFFCURVE",
"60 690 OFFCURVE",
"60 549 CURVE",
"60 8 LINE"
);
},
{
closed = 1;
nodes = (
"324 326 LINE",
"324 500 LINE",
"14 500 LINE",
"14 326 LINE"
);
}
);
width = 335;
}
);
unicode = 0066;
},
{
color = 1;
glyphname = g;
lastChange = "2016-10-12 03:54:10 +0000";
layers = (
{
layerId = "262880E7-CFE1-4BDA-902E-E24798F3240A";
paths = (
{
closed = 1;
nodes = (
"324 -9 OFFCURVE",
"383 52 OFFCURVE",
"383 152 CURVE SMOOTH",
"383 348 LINE SMOOTH",
"383 448 OFFCURVE",
"324 509 OFFCURVE",
"227 509 CURVE SMOOTH",
"128 509 OFFCURVE",
"68 449 OFFCURVE",
"68 350 CURVE SMOOTH",
"68 150 LINE SMOOTH",
"68 51 OFFCURVE",
"128 -9 OFFCURVE",
"227 -9 CURVE"
);
},
{
closed = 1;
nodes = (
"143 11 OFFCURVE",
"90 64 OFFCURVE",
"90 150 CURVE SMOOTH",
"90 350 LINE SMOOTH",
"90 437 OFFCURVE",
"143 490 OFFCURVE",
"229 490 CURVE SMOOTH",
"315 490 OFFCURVE",
"368 437 OFFCURVE",
"368 350 CURVE SMOOTH",
"368 150 LINE SMOOTH",
"368 64 OFFCURVE",
"315 11 OFFCURVE",
"229 11 CURVE SMOOTH"
);
},
{
closed = 1;
nodes = (
"329 -211 OFFCURVE",
"390 -150 OFFCURVE",
"390 -50 CURVE SMOOTH",
"390 500 LINE",
"368 500 LINE",
"368 -50 LINE SMOOTH",
"368 -137 OFFCURVE",
"315 -190 OFFCURVE",
"229 -190 CURVE",
"229 -211 LINE"
);
}
);
width = 470;
},
{
layerId = "4F25946F-63AC-42D6-8D55-01CF6A99025B";
paths = (
{
closed = 1;
nodes = (
"310 0 OFFCURVE",
"490 138 OFFCURVE",
"490 178 CURVE SMOOTH",
"490 212 LINE SMOOTH",
"490 253 OFFCURVE",
"382 500 OFFCURVE",
"188 500 CURVE",
"85 500 OFFCURVE",
"28 449 OFFCURVE",
"28 350 CURVE SMOOTH",
"28 160 LINE SMOOTH",
"28 69 OFFCURVE",
"68 0 OFFCURVE",
"167 0 CURVE SMOOTH"
);
},
{
closed = 1;
nodes = (
"244 171 OFFCURVE",
"235 181 OFFCURVE",
"235 198 CURVE SMOOTH",
"235 312 LINE SMOOTH",
"235 329 OFFCURVE",
"244 339 OFFCURVE",
"260 339 CURVE SMOOTH",
"276 339 OFFCURVE",
"285 329 OFFCURVE",
"285 312 CURVE SMOOTH",
"285 198 LINE SMOOTH",
"285 181 OFFCURVE",
"276 171 OFFCURVE",
"260 171 CURVE SMOOTH"
);
},
{
closed = 1;
nodes = (
"438 -226 OFFCURVE",
"497 -115 OFFCURVE",
"497 34 CURVE SMOOTH",
"497 500 LINE",
"285 500 LINE",
"285 34 LINE SMOOTH",
"285 -14 OFFCURVE",
"275 -44 OFFCURVE",
"141 -36 CURVE",
"141 -207 LINE"
);
}
);
width = 539;
},
{
associatedMasterId = "4F25946F-63AC-42D6-8D55-01CF6A99025B";
layerId = "B6BF2724-269E-425D-BD22-36C93A6CFDCE";
name = "Medium {91, 100}";
paths = (
{
closed = 1;
nodes = (
"338 -7 OFFCURVE",
"407 68 OFFCURVE",
"407 184 CURVE SMOOTH",
"407 305 LINE SMOOTH",
"407 421 OFFCURVE",
"338 511 OFFCURVE",
"217 511 CURVE SMOOTH",
"118 511 OFFCURVE",
"52 450 OFFCURVE",
"52 350 CURVE SMOOTH",
"52 154 LINE SMOOTH",
"52 54 OFFCURVE",
"118 -7 OFFCURVE",
"222 -7 CURVE SMOOTH"
);
},
{
closed = 1;
nodes = (
"180 72 OFFCURVE",
"144 108 OFFCURVE",
"144 168 CURVE SMOOTH",
"144 336 LINE SMOOTH",
"144 396 OFFCURVE",
"180 433 OFFCURVE",
"240 433 CURVE SMOOTH",
"300 433 OFFCURVE",
"336 396 OFFCURVE",
"336 336 CURVE SMOOTH",
"336 168 LINE SMOOTH",
"336 108 OFFCURVE",
"300 72 OFFCURVE",
"240 72 CURVE SMOOTH"
);
},
{
closed = 1;
nodes = (
"370 -217 OFFCURVE",
"431 -137 OFFCURVE",
"431 -18 CURVE SMOOTH",
"431 500 LINE",
"336 500 LINE",
"336 -18 LINE SMOOTH",
"336 -90 OFFCURVE",
"300 -135 OFFCURVE",
"196 -131 CURVE",
"196 -209 LINE"
);
}
);
width = 496;
}
);
unicode = 0067;
},
{
color = 1;
glyphname = h;
lastChange = "2016-10-12 03:55:42 +0000";
layers = (
{
layerId = "262880E7-CFE1-4BDA-902E-E24798F3240A";
paths = (
{
closed = 1;
nodes = (
"402 0 LINE",
"402 350 LINE SMOOTH",
"402 450 OFFCURVE",
"340 509 OFFCURVE",
"243 509 CURVE SMOOTH",
"145 509 OFFCURVE",
"87 450 OFFCURVE",
"87 350 CURVE",
"102 350 LINE",
"102 437 OFFCURVE",
"156 490 OFFCURVE",
"241 490 CURVE SMOOTH",
"326 490 OFFCURVE",
"380 437 OFFCURVE",
"380 350 CURVE SMOOTH",
"380 0 LINE"
);
},
{
closed = 1;
nodes = (
"102 0 LINE",
"102 700 LINE",
"80 700 LINE",
"80 0 LINE"
);
}
);
width = 476;
},
{
layerId = "4F25946F-63AC-42D6-8D55-01CF6A99025B";
paths = (
{
closed = 1;
nodes = (
"508 0 LINE",
"508 350 LINE SMOOTH",
"508 441 OFFCURVE",
"470 510 OFFCURVE",
"365 510 CURVE SMOOTH",
"228 510 OFFCURVE",
"188 393 OFFCURVE",
"188 292 CURVE",
"250 312 LINE",
"250 329 OFFCURVE",
"259 339 OFFCURVE",
"275 339 CURVE SMOOTH",
"291 339 OFFCURVE",
"300 329 OFFCURVE",
"300 312 CURVE SMOOTH",
"300 0 LINE"
);
},
{
closed = 1;
nodes = (
"250 0 LINE",
"250 700 LINE",
"42 700 LINE",
"42 0 LINE"
);
}
);
width = 544;
},
{
associatedMasterId = "4F25946F-63AC-42D6-8D55-01CF6A99025B";
layerId = "6DA8EE20-322F-490D-912C-EA80E03ECB77";
name = "Medium {91, 100}";
paths = (
{
closed = 1;
nodes = (
"442 0 LINE",
"442 350 LINE SMOOTH",
"442 450 OFFCURVE",
"383 511 OFFCURVE",
"282 511 CURVE SMOOTH",
"176 511 OFFCURVE",
"108 444 OFFCURVE",
"108 335 CURVE",
"158 336 LINE",
"158 396 OFFCURVE",
"194 433 OFFCURVE",
"254 433 CURVE SMOOTH",
"314 433 OFFCURVE",
"350 396 OFFCURVE",
"350 336 CURVE SMOOTH",
"350 0 LINE"
);
},
{
closed = 1;
nodes = (
"158 0 LINE",
"158 700 LINE",
"66 700 LINE",
"66 0 LINE"
);
}
);
width = 502;
}
);
unicode = 0068;
},
{
color = 1;
glyphname = i;
lastChange = "2016-10-12 00:56:11 +0000";
layers = (
{
layerId = "262880E7-CFE1-4BDA-902E-E24798F3240A";
paths = (
{
closed = 1;
nodes = (
"102 0 LINE",
"102 500 LINE",
"80 500 LINE",
"80 0 LINE"
);
},
{
closed = 1;
nodes = (
"113 659 OFFCURVE",
"132 677 OFFCURVE",
"132 700 CURVE SMOOTH",
"132 722 OFFCURVE",
"113 740 OFFCURVE",
"91 740 CURVE SMOOTH",
"69 740 OFFCURVE",
"50 722 OFFCURVE",
"50 700 CURVE SMOOTH",
"50 677 OFFCURVE",
"68 659 OFFCURVE",
"91 659 CURVE SMOOTH"
);
}
);
width = 182;
},
{
layerId = "4F25946F-63AC-42D6-8D55-01CF6A99025B";
paths = (
{
closed = 1;
nodes = (
"250 0 LINE",
"250 500 LINE",
"42 500 LINE",
"42 0 LINE"
);
},
{
closed = 1;
nodes = (
"205 547 OFFCURVE",
"256 591 OFFCURVE",
"256 656 CURVE",
"256 715 OFFCURVE",
"205 763 OFFCURVE",
"146 763 CURVE SMOOTH",
"87 763 OFFCURVE",
"36 715 OFFCURVE",
"36 656 CURVE SMOOTH",
"36 595 OFFCURVE",
"85 547 OFFCURVE",
"146 547 CURVE SMOOTH"
);
}
);
width = 292;
}
);
unicode = 0069;
},
{
color = 1;
glyphname = j;
lastChange = "2016-10-12 00:56:11 +0000";
layers = (
{
layerId = "262880E7-CFE1-4BDA-902E-E24798F3240A";
paths = (
{
closed = 1;
nodes = (
"50 -211 OFFCURVE",
"102 -159 OFFCURVE",
"102 -74 CURVE SMOOTH",
"102 500 LINE",
"80 500 LINE",
"80 -74 LINE SMOOTH",
"80 -146 OFFCURVE",
"37 -190 OFFCURVE",
"-34 -190 CURVE",
"-34 -211 LINE"
);
},
{
closed = 1;
nodes = (
"116 659 OFFCURVE",
"132 675 OFFCURVE",
"132 700 CURVE SMOOTH",
"132 725 OFFCURVE",
"116 740 OFFCURVE",
"91 740 CURVE SMOOTH",
"66 740 OFFCURVE",
"50 725 OFFCURVE",
"50 700 CURVE SMOOTH",
"50 675 OFFCURVE",
"66 659 OFFCURVE",
"91 659 CURVE SMOOTH"
);
}
);
width = 182;
},
{
layerId = "4F25946F-63AC-42D6-8D55-01CF6A99025B";
paths = (
{
closed = 1;
nodes = (
"143 -236 OFFCURVE",
"251 -200 OFFCURVE",
"250 -39 CURVE",
"250 500 LINE",
"42 500 LINE",
"42 -8 LINE",
"42 -40 OFFCURVE",
"-7 -39 OFFCURVE",
"-31 -26 CURVE",
"-41 -201 LINE"
);
},
{
closed = 1;
nodes = (
"205 547 OFFCURVE",
"256 595 OFFCURVE",
"256 656 CURVE",
"256 715 OFFCURVE",
"205 763 OFFCURVE",
"146 763 CURVE SMOOTH",
"87 763 OFFCURVE",
"36 715 OFFCURVE",
"36 656 CURVE SMOOTH",
"36 595 OFFCURVE",
"85 547 OFFCURVE",
"146 547 CURVE SMOOTH"
);
}
);
width = 292;
}
);
unicode = 006A;
},
{
color = 1;
glyphname = k;
lastChange = "2016-10-12 00:56:11 +0000";
layers = (
{
layerId = "262880E7-CFE1-4BDA-902E-E24798F3240A";
paths = (
{
closed = 1;
nodes = (
"360 0 LINE",
"114 250 LINE",
"362 500 LINE",
"331 500 LINE",
"82 250 LINE",
"329 0 LINE"
);
},
{
closed = 1;
nodes = (
"102 1 LINE",
"103 700 LINE",
"81 700 LINE",
"80 1 LINE"
);
}
);
width = 397;
},
{
layerId = "4F25946F-63AC-42D6-8D55-01CF6A99025B";
paths = (
{
closed = 1;
nodes = (
"555 0 LINE",
"391 250 LINE",
"554 500 LINE",
"320 500 LINE",
"185 250 LINE",
"320 0 LINE"
);
},
{
closed = 1;
nodes = (
"250 0 LINE",
"251 700 LINE",
"43 700 LINE",
"42 0 LINE"
);
}
);
width = 549;
}
);
unicode = 006B;
},
{
color = 1;
glyphname = l;
lastChange = "2016-10-12 00:56:11 +0000";
layers = (
{
layerId = "262880E7-CFE1-4BDA-902E-E24798F3240A";
paths = (
{
closed = 1;
nodes = (
"102 0 LINE",
"102 700 LINE",
"80 700 LINE",
"80 0 LINE"
);
}
);
width = 182;
},
{
layerId = "4F25946F-63AC-42D6-8D55-01CF6A99025B";
paths = (
{
closed = 1;
nodes = (
"250 0 LINE",
"250 700 LINE",
"42 700 LINE",
"42 0 LINE"
);
}
);
width = 292;
}
);
unicode = 006C;
},
{
color = 1;
glyphname = m;
lastChange = "2016-10-12 01:12:04 +0000";
layers = (
{
layerId = "262880E7-CFE1-4BDA-902E-E24798F3240A";
paths = (
{
closed = 1;
nodes = (
"682 0 LINE",
"682 350 LINE SMOOTH",
"682 450 OFFCURVE",
"621 511 OFFCURVE",
"527 511 CURVE SMOOTH",
"432 511 OFFCURVE",
"377 450 OFFCURVE",
"377 350 CURVE",
"392 350 LINE",
"392 437 OFFCURVE",
"443 490 OFFCURVE",
"526 490 CURVE SMOOTH",
"609 490 OFFCURVE",
"660 437 OFFCURVE",
"660 350 CURVE SMOOTH",
"660 0 LINE"
);
},
{
closed = 1;
nodes = (
"102 0 LINE",
"102 500 LINE",
"80 500 LINE",
"80 0 LINE"
);
},
{
closed = 1;
nodes = (
"392 0 LINE",
"392 350 LINE",
"392 450 OFFCURVE",
"331 511 OFFCURVE",
"237 511 CURVE SMOOTH",
"142 511 OFFCURVE",
"87 450 OFFCURVE",
"87 350 CURVE",
"102 350 LINE",
"102 437 OFFCURVE",
"153 490 OFFCURVE",
"236 490 CURVE SMOOTH",
"319 490 OFFCURVE",
"370 437 OFFCURVE",
"370 350 CURVE",
"370 0 LINE"
);
}
);
width = 756;
},
{
layerId = "4F25946F-63AC-42D6-8D55-01CF6A99025B";
paths = (
{
closed = 1;
nodes = (
"766 0 LINE",
"766 350 LINE SMOOTH",
"766 441 OFFCURVE",
"728 510 OFFCURVE",
"623 510 CURVE SMOOTH",
"486 510 OFFCURVE",
"446 393 OFFCURVE",
"446 292 CURVE",
"508 292 LINE",
"508 309 OFFCURVE",
"517 319 OFFCURVE",
"533 319 CURVE SMOOTH",
"549 319 OFFCURVE",
"558 309 OFFCURVE",
"558 292 CURVE SMOOTH",
"558 0 LINE"
);
},
{
closed = 1;
nodes = (
"250 0 LINE",
"250 500 LINE",
"42 500 LINE",
"42 0 LINE"
);
},
{
closed = 1;
nodes = (
"508 0 LINE",
"508 350 LINE SMOOTH",
"508 441 OFFCURVE",
"470 510 OFFCURVE",
"365 510 CURVE SMOOTH",
"228 510 OFFCURVE",
"188 393 OFFCURVE",
"188 292 CURVE",
"250 292 LINE",
"250 309 OFFCURVE",
"259 319 OFFCURVE",
"275 319 CURVE SMOOTH",
"291 319 OFFCURVE",
"300 309 OFFCURVE",
"300 292 CURVE SMOOTH",
"300 0 LINE"
);
}
);
width = 802;
},
{
associatedMasterId = "4F25946F-63AC-42D6-8D55-01CF6A99025B";
layerId = "F5ED04A7-6D5C-4CB3-8E75-4B337E8B4478";
name = "Medium {91, 100}";
paths = (
{
closed = 1;
nodes = (
"726 0 LINE",
"726 350 LINE SMOOTH",
"726 450 OFFCURVE",
"667 511 OFFCURVE",
"566 511 CURVE SMOOTH",
"460 511 OFFCURVE",
"392 444 OFFCURVE",
"392 335 CURVE",
"442 336 LINE",
"442 396 OFFCURVE",
"478 433 OFFCURVE",
"538 433 CURVE SMOOTH",
"598 433 OFFCURVE",
"634 396 OFFCURVE",
"634 336 CURVE SMOOTH",
"634 0 LINE"
);
},
{
closed = 1;
nodes = (
"158 0 LINE",
"158 500 LINE",
"66 500 LINE",
"66 0 LINE"
);
},
{
closed = 1;
nodes = (
"442 0 LINE",
"442 350 LINE SMOOTH",
"442 450 OFFCURVE",
"383 511 OFFCURVE",
"282 511 CURVE SMOOTH",
"176 511 OFFCURVE",
"108 444 OFFCURVE",
"108 335 CURVE",
"158 336 LINE",
"158 396 OFFCURVE",
"194 433 OFFCURVE",
"254 433 CURVE SMOOTH",
"314 433 OFFCURVE",
"350 396 OFFCURVE",
"350 336 CURVE SMOOTH",
"350 0 LINE"
);
}
);
width = 773;
}
);
unicode = 006D;
},
{
color = 1;
glyphname = n;
lastChange = "2016-10-12 03:55:23 +0000";
layers = (
{
layerId = "262880E7-CFE1-4BDA-902E-E24798F3240A";
paths = (
{
closed = 1;
nodes = (
"402 0 LINE",
"402 350 LINE SMOOTH",
"402 450 OFFCURVE",
"341 510 OFFCURVE",
"242 510 CURVE SMOOTH",
"146 510 OFFCURVE",
"88 450 OFFCURVE",
"88 350 CURVE",
"102 350 LINE",
"102 437 OFFCURVE",
"155 490 OFFCURVE",
"241 490 CURVE SMOOTH",
"327 490 OFFCURVE",
"380 437 OFFCURVE",
"380 350 CURVE SMOOTH",
"380 0 LINE"
);
},
{
closed = 1;
nodes = (
"102 0 LINE",
"102 500 LINE",
"80 500 LINE",
"80 0 LINE"
);
}
);
width = 476;
},
{
layerId = "4F25946F-63AC-42D6-8D55-01CF6A99025B";
paths = (
{
closed = 1;
nodes = (
"508 0 LINE",
"508 350 LINE SMOOTH",
"508 441 OFFCURVE",
"470 510 OFFCURVE",
"365 510 CURVE SMOOTH",
"228 510 OFFCURVE",
"188 393 OFFCURVE",
"188 292 CURVE",
"250 312 LINE",
"250 329 OFFCURVE",
"259 339 OFFCURVE",
"275 339 CURVE SMOOTH",
"291 339 OFFCURVE",
"300 329 OFFCURVE",
"300 312 CURVE SMOOTH",
"300 0 LINE"
);
},
{
closed = 1;
nodes = (
"250 0 LINE",
"250 500 LINE",
"42 500 LINE",
"42 0 LINE"
);
}
);
width = 544;
},
{
associatedMasterId = "4F25946F-63AC-42D6-8D55-01CF6A99025B";
layerId = "48EED9EC-BBC9-457D-A249-2E4341C899C3";
name = "Medium {91, 100}";
paths = (
{
closed = 1;
nodes = (
"442 0 LINE",
"442 350 LINE SMOOTH",
"442 450 OFFCURVE",
"383 511 OFFCURVE",
"282 511 CURVE SMOOTH",
"176 511 OFFCURVE",
"108 444 OFFCURVE",
"108 335 CURVE",
"158 336 LINE",
"158 396 OFFCURVE",
"194 433 OFFCURVE",
"254 433 CURVE SMOOTH",
"314 433 OFFCURVE",
"350 396 OFFCURVE",
"350 336 CURVE SMOOTH",
"350 0 LINE"
);
},
{
closed = 1;
nodes = (
"158 0 LINE",
"158 500 LINE",
"66 500 LINE",
"66 0 LINE"
);
}
);
width = 502;
}
);
unicode = 006E;
},
{
color = 1;
glyphname = o;
lastChange = "2016-10-12 03:53:33 +0000";
layers = (
{
layerId = "262880E7-CFE1-4BDA-902E-E24798F3240A";
paths = (
{
closed = 1;
nodes = (
"329 -11 OFFCURVE",
"390 50 OFFCURVE",
"390 150 CURVE SMOOTH",
"390 350 LINE SMOOTH",
"390 450 OFFCURVE",
"329 511 OFFCURVE",
"229 511 CURVE SMOOTH",
"129 511 OFFCURVE",
"68 450 OFFCURVE",
"68 350 CURVE SMOOTH",
"68 150 LINE SMOOTH",
"68 50 OFFCURVE",
"129 -11 OFFCURVE",
"229 -11 CURVE SMOOTH"
);
},
{
closed = 1;
nodes = (
"143 11 OFFCURVE",
"90 64 OFFCURVE",
"90 150 CURVE SMOOTH",
"90 350 LINE SMOOTH",
"90 437 OFFCURVE",
"143 490 OFFCURVE",
"229 490 CURVE SMOOTH",
"315 490 OFFCURVE",
"368 437 OFFCURVE",
"368 350 CURVE SMOOTH",
"368 150 LINE SMOOTH",
"368 64 OFFCURVE",
"315 11 OFFCURVE",
"229 11 CURVE SMOOTH"
);
}
);
width = 458;
},
{
layerId = "4F25946F-63AC-42D6-8D55-01CF6A99025B";
paths = (
{
closed = 1;
nodes = (
"417 -8 OFFCURVE",
"491 72 OFFCURVE",
"491 247 CURVE",
"491 256 LINE",
"489 430 OFFCURVE",
"415 508 OFFCURVE",
"253 508 CURVE SMOOTH",
"90 508 OFFCURVE",
"17 430 OFFCURVE",
"17 256 CURVE",
"17 247 LINE",
"18 64 OFFCURVE",
"97 -8 OFFCURVE",
"253 -8 CURVE SMOOTH"
);
},
{
closed = 1;
nodes = (
"238 174 OFFCURVE",
"229 185 OFFCURVE",
"229 203 CURVE",
"229 299 LINE",
"229 316 OFFCURVE",
"238 326 OFFCURVE",
"254 326 CURVE SMOOTH",
"270 326 OFFCURVE",
"279 316 OFFCURVE",
"279 299 CURVE",
"279 203 LINE",
"279 185 OFFCURVE",
"270 174 OFFCURVE",
"254 174 CURVE SMOOTH"
);
}
);
width = 508;
},
{
associatedMasterId = "262880E7-CFE1-4BDA-902E-E24798F3240A";
layerId = "21D0BE0D-9149-477D-850E-37608F5C3F7D";
paths = (
{
closed = 1;
nodes = (
"357 -10 OFFCURVE",
"428 54 OFFCURVE",
"428 159 CURVE SMOOTH",
"428 341 LINE SMOOTH",
"428 446 OFFCURVE",
"357 510 OFFCURVE",
"242 510 CURVE SMOOTH",
"127 510 OFFCURVE",
"56 446 OFFCURVE",
"55 341 CURVE SMOOTH",
"53 159 LINE SMOOTH",
"52 54 OFFCURVE",
"123 -10 OFFCURVE",
"240 -10 CURVE SMOOTH"
);
},
{
closed = 1;
nodes = (
"182 78 OFFCURVE",
"147 109 OFFCURVE",
"147 163 CURVE SMOOTH",
"147 337 LINE SMOOTH",
"147 391 OFFCURVE",
"182 423 OFFCURVE",
"241 423 CURVE SMOOTH",
"300 423 OFFCURVE",
"335 391 OFFCURVE",
"335 337 CURVE SMOOTH",
"335 163 LINE SMOOTH",
"335 109 OFFCURVE",
"300 78 OFFCURVE",
"241 78 CURVE SMOOTH"
);
}
);
width = 481;
}
);
unicode = 006F;
},
{
color = 1;
glyphname = r;
lastChange = "2016-10-12 01:09:54 +0000";
layers = (
{
layerId = "262880E7-CFE1-4BDA-902E-E24798F3240A";
paths = (
{
closed = 1;
nodes = (
"102 340 LINE",
"102 427 OFFCURVE",
"152 492 OFFCURVE",
"234 492 CURVE SMOOTH",
"244 492 OFFCURVE",
"261 488 OFFCURVE",
"270 484 CURVE",
"287 497 LINE",
"273 505 OFFCURVE",
"253 511 OFFCURVE",
"234 511 CURVE SMOOTH",
"139 511 OFFCURVE",
"85 438 OFFCURVE",
"85 340 CURVE"
);
},
{
closed = 1;
nodes = (
"102 0 LINE",
"102 500 LINE",
"80 500 LINE",
"80 0 LINE"
);
}
);
width = 320;
},
{
layerId = "4F25946F-63AC-42D6-8D55-01CF6A99025B";
paths = (
{
closed = 1;
nodes = (
"250 268 LINE",
"250 302 OFFCURVE",
"283 317 OFFCURVE",
"309 317 CURVE SMOOTH",
"326 317 OFFCURVE",
"359 310 OFFCURVE",
"363 301 CURVE",
"404 464 LINE",
"401 486 OFFCURVE",
"380 505 OFFCURVE",
"339 505 CURVE SMOOTH",
"235 505 OFFCURVE",
"188 382 OFFCURVE",
"188 268 CURVE"
);
},
{
closed = 1;
nodes = (
"250 0 LINE",
"250 500 LINE",
"42 500 LINE",
"42 0 LINE"
);
}
);
width = 403;
}
);
unicode = 0072;
},
{
color = 1;
glyphname = s;
lastChange = "2016-10-12 03:55:54 +0000";
layers = (
{
layerId = "262880E7-CFE1-4BDA-902E-E24798F3240A";
paths = (
{
closed = 1;
nodes = (
"312 -9 OFFCURVE",
"378 41 OFFCURVE",
"378 120 CURVE SMOOTH",
"378 208 OFFCURVE",
"294 237 OFFCURVE",
"214 265 CURVE SMOOTH",
"143 290 OFFCURVE",
"76 312 OFFCURVE",
"76 375 CURVE SMOOTH",
"76 444 OFFCURVE",
"132 490 OFFCURVE",
"215 490 CURVE SMOOTH",
"298 490 OFFCURVE",
"354 444 OFFCURVE",
"354 375 CURVE SMOOTH",
"354 374 LINE",
"376 374 LINE",
"376 375 LINE SMOOTH",
"376 457 OFFCURVE",
"312 509 OFFCURVE",
"215 509 CURVE SMOOTH",
"118 509 OFFCURVE",
"54 457 OFFCURVE",
"54 375 CURVE SMOOTH",
"54 295 OFFCURVE",
"133 268 OFFCURVE",
"210 241 CURVE SMOOTH",
"283 216 OFFCURVE",
"356 191 OFFCURVE",
"356 120 CURVE SMOOTH",
"356 55 OFFCURVE",
"298 11 OFFCURVE",
"212 11 CURVE SMOOTH",
"129 11 OFFCURVE",
"74 54 OFFCURVE",
"74 120 CURVE SMOOTH",
"74 121 LINE",
"52 121 LINE",
"52 120 LINE SMOOTH",
"52 42 OFFCURVE",
"116 -9 OFFCURVE",
"212 -9 CURVE SMOOTH"
);
}
);
width = 431;
},
{
layerId = "4F25946F-63AC-42D6-8D55-01CF6A99025B";
paths = (
{
closed = 1;
nodes = (
"358 -10 OFFCURVE",
"433 59 OFFCURVE",
"433 150 CURVE SMOOTH",
"433 212 OFFCURVE",
"399 267 OFFCURVE",
"315 294 CURVE SMOOTH",
"268 309 OFFCURVE",
"198 318 OFFCURVE",
"198 347 CURVE SMOOTH",
"198 355 OFFCURVE",
"204 369 OFFCURVE",
"220 369 CURVE SMOOTH",
"233 369 OFFCURVE",
"245 361 OFFCURVE",
"247 343 CURVE",
"247 334 LINE",
"425 334 LINE",
"425 343 LINE",
"422 440 OFFCURVE",
"348 510 OFFCURVE",
"219 510 CURVE SMOOTH",
"89 510 OFFCURVE",
"15 440 OFFCURVE",
"15 353 CURVE SMOOTH",
"15 289 OFFCURVE",
"56 236 OFFCURVE",
"135 210 CURVE SMOOTH",
"181 195 OFFCURVE",
"243 186 OFFCURVE",
"243 152 CURVE SMOOTH",
"243 138 OFFCURVE",
"233 129 OFFCURVE",
"220 129 CURVE SMOOTH",
"206 129 OFFCURVE",
"197 138 OFFCURVE",
"197 152 CURVE SMOOTH",
"197 168 LINE",
"14 168 LINE",
"14 158 LINE",
"14 64 OFFCURVE",
"94 -10 OFFCURVE",
"228 -10 CURVE SMOOTH"
);
}
);
width = 446;
},
{
associatedMasterId = "262880E7-CFE1-4BDA-902E-E24798F3240A";
layerId = "677A5083-0B4E-4805-9AE1-F115960A3564";
name = "Medium {91, 100}";
paths = (
{
closed = 1;
nodes = (
"325 -11 OFFCURVE",
"395 48 OFFCURVE",
"395 131 CURVE SMOOTH",
"395 213 OFFCURVE",
"327 252 OFFCURVE",
"248 280 CURVE SMOOTH",
"186 302 OFFCURVE",
"128 315 OFFCURVE",
"128 370 CURVE SMOOTH",
"128 412 OFFCURVE",
"160 441 OFFCURVE",
"215 441 CURVE SMOOTH",
"270 441 OFFCURVE",
"307 412 OFFCURVE",
"307 363 CURVE SMOOTH",
"307 359 LINE",
"391 359 LINE",
"391 363 LINE SMOOTH",
"391 449 OFFCURVE",
"322 511 OFFCURVE",
"217 511 CURVE SMOOTH",
"113 511 OFFCURVE",
"45 449 OFFCURVE",
"45 370 CURVE SMOOTH",
"45 294 OFFCURVE",
"107 251 OFFCURVE",
"182 222 CURVE SMOOTH",
"246 197 OFFCURVE",
"310 187 OFFCURVE",
"310 130 CURVE SMOOTH",
"310 86 OFFCURVE",
"272 63 OFFCURVE",
"218 63 CURVE SMOOTH",
"157 63 OFFCURVE",
"124 93 OFFCURVE",
"124 139 CURVE SMOOTH",
"124 146 LINE",
"38 146 LINE",
"38 141 LINE SMOOTH",
"38 57 OFFCURVE",
"103 -11 OFFCURVE",
"218 -11 CURVE SMOOTH"
);
}
);
width = 437;
}
);
unicode = 0073;
},
{
color = 1;
glyphname = t;
lastChange = "2016-10-12 03:52:26 +0000";
layers = (
{
layerId = "262880E7-CFE1-4BDA-902E-E24798F3240A";
paths = (
{
closed = 1;
nodes = (
"248 -1 LINE",
"248 21 LINE",
"224 21 LINE SMOOTH",
"143 21 OFFCURVE",
"120 52 OFFCURVE",
"120 148 CURVE SMOOTH",
"120 479 LINE",
"234 479 LINE",
"234 500 LINE",
"120 500 LINE",
"120 700 LINE",
"98 700 LINE",
"98 500 LINE",
"34 500 LINE",
"34 479 LINE",
"98 479 LINE",
"98 148 LINE SMOOTH",
"98 38 OFFCURVE",
"130 -1 OFFCURVE",
"224 -1 CURVE SMOOTH"
);
}
);
width = 272;
},
{
layerId = "4F25946F-63AC-42D6-8D55-01CF6A99025B";
paths = (
{
closed = 1;
nodes = (
"300 1 LINE",
"307 170 LINE",
"307 170 LINE",
"279 166 OFFCURVE",
"260 161 OFFCURVE",
"260 192 CURVE SMOOTH",
"260 326 LINE",
"326 326 LINE",
"326 500 LINE",
"260 500 LINE",
"260 700 LINE",
"52 700 LINE",
"52 500 LINE",
"16 500 LINE",
"16 326 LINE",
"52 326 LINE",
"52 163 LINE SMOOTH",
"51 3 OFFCURVE",
"128 -24 OFFCURVE",
"300 1 CURVE"
);
}
);
width = 347;
}
);
unicode = 0074;
},
{
color = 1;
glyphname = u;
lastChange = "2016-10-12 03:54:29 +0000";
layers = (
{
layerId = "262880E7-CFE1-4BDA-902E-E24798F3240A";
paths = (
{
closed = 1;
nodes = (
"333 -9 OFFCURVE",
"392 51 OFFCURVE",
"392 150 CURVE",
"375 150 LINE",
"375 63 OFFCURVE",
"322 10 OFFCURVE",
"236 10 CURVE SMOOTH",
"150 10 OFFCURVE",
"97 63 OFFCURVE",
"97 150 CURVE SMOOTH",
"97 500 LINE",
"75 500 LINE",
"75 150 LINE SMOOTH",
"75 51 OFFCURVE",
"136 -9 OFFCURVE",
"236 -9 CURVE SMOOTH"
);
},
{
closed = 1;
nodes = (
"397 0 LINE",
"397 500 LINE",
"375 500 LINE",
"375 0 LINE"
);
}
);
width = 477;
},
{
layerId = "4F25946F-63AC-42D6-8D55-01CF6A99025B";
paths = (
{
closed = 1;
nodes = (
"324 -10 OFFCURVE",
"358 108 OFFCURVE",
"358 208 CURVE",
"296 188 LINE",
"296 171 OFFCURVE",
"287 161 OFFCURVE",
"271 161 CURVE SMOOTH",
"255 161 OFFCURVE",
"246 171 OFFCURVE",
"246 188 CURVE SMOOTH",
"246 500 LINE",
"38 500 LINE",
"38 150 LINE SMOOTH",
"38 53 OFFCURVE",
"59 -10 OFFCURVE",
"171 -10 CURVE SMOOTH"
);
},
{
closed = 1;
nodes = (
"504 0 LINE",
"504 500 LINE",
"296 500 LINE",
"296 0 LINE"
);
}
);
width = 546;
}
);
unicode = 0075;
},
{
color = 1;
glyphname = v;
lastChange = "2016-10-12 01:31:32 +0000";
layers = (
{
layerId = "262880E7-CFE1-4BDA-902E-E24798F3240A";
paths = (
{
closed = 1;
nodes = (
"225 0 LINE",
"390 500 LINE",
"368 500 LINE",
"214 35 LINE",
"60 500 LINE",
"38 500 LINE",
"203 0 LINE"
);
}
);
width = 428;
},
{
layerId = "4F25946F-63AC-42D6-8D55-01CF6A99025B";
paths = (
{
closed = 1;
nodes = (
"332 0 LINE",
"476 500 LINE",
"269 500 LINE",
"236 257 LINE",
"203 500 LINE",
"-4 500 LINE",
"140 0 LINE"
);
}
);
width = 472;
},
{
associatedMasterId = "262880E7-CFE1-4BDA-902E-E24798F3240A";
layerId = "30C42329-3409-4879-A8EC-0B65B1A31C66";
name = "Medium { 91, 100}";
paths = (
{
closed = 1;
nodes = (
"266 0 LINE",
"423 500 LINE",
"330 500 LINE",
"222 129 LINE",
"114 500 LINE",
"22 500 LINE",
"179 0 LINE"
);
}
);
width = 445;
}
);
unicode = 0076;
},
{
color = 1;
glyphname = w;
lastChange = "2016-10-12 01:32:09 +0000";
layers = (
{
layerId = "262880E7-CFE1-4BDA-902E-E24798F3240A";
paths = (
{
closed = 1;
nodes = (
"197 0 LINE",
"321 458 LINE",
"445 0 LINE",
"467 0 LINE",
"602 500 LINE",
"580 500 LINE",
"456 42 LINE",
"332 500 LINE",
"310 500 LINE",
"186 42 LINE",
"62 500 LINE",
"40 500 LINE",
"175 0 LINE"
);
}
);
width = 642;
},
{
layerId = "4F25946F-63AC-42D6-8D55-01CF6A99025B";
paths = (
{
closed = 1;
nodes = (
"321 0 LINE",
"357 211 LINE",
"392 0 LINE",
"573 0 LINE",
"717 500 LINE",
"505 500 LINE",
"471 267 LINE",
"435 500 LINE",
"278 500 LINE",
"242 267 LINE",
"208 500 LINE",
"-4 500 LINE",
"140 0 LINE"
);
}
);
width = 713;
},
{
associatedMasterId = "262880E7-CFE1-4BDA-902E-E24798F3240A";
layerId = "480BA72E-C4F5-43EF-BDD2-211D62698B35";
name = "Medium {91, 100}";
paths = (
{
closed = 1;
nodes = (
"244 0 LINE",
"335 361 LINE",
"425 0 LINE",
"507 0 LINE",
"646 500 LINE",
"552 500 LINE",
"469 130 LINE",
"371 500 LINE",
"298 500 LINE",
"201 130 LINE",
"117 500 LINE",
"23 500 LINE",
"162 0 LINE"
);
}
);
width = 669;
}
);
unicode = 0077;
},
{
color = 1;
glyphname = x;
lastChange = "2016-10-12 01:31:12 +0000";
layers = (
{
layerId = "262880E7-CFE1-4BDA-902E-E24798F3240A";
paths = (
{
closed = 1;
nodes = (
"38 500 LINE",
"60 500 LINE",
"390 0 LINE",
"368 0 LINE"
);
},
{
closed = 1;
nodes = (
"368 500 LINE",
"390 500 LINE",
"60 0 LINE",
"38 0 LINE"
);
}
);
width = 428;
},
{
layerId = "4F25946F-63AC-42D6-8D55-01CF6A99025B";
paths = (
{
closed = 1;
nodes = (
"-4 500 LINE",
"218 500 LINE",
"508 0 LINE",
"286 0 LINE"
);
},
{
closed = 1;
nodes = (
"286 500 LINE",
"508 500 LINE",
"218 0 LINE",
"-4 0 LINE"
);
}
);
width = 504;
}
);
unicode = 0078;
},
{
color = 1;
glyphname = y;
lastChange = "2016-10-12 00:56:11 +0000";
layers = (
{
layerId = "262880E7-CFE1-4BDA-902E-E24798F3240A";
paths = (
{
closed = 1;
nodes = (
"134 -211 OFFCURVE",
"169 -174 OFFCURVE",
"202 -73 CURVE",
"392 500 LINE",
"370 500 LINE",
"182 -67 LINE SMOOTH",
"151 -160 OFFCURVE",
"122 -190 OFFCURVE",
"66 -190 CURVE",
"66 -211 LINE"
);
},
{
closed = 1;
nodes = (
"217 28 LINE",
"60 500 LINE",
"38 500 LINE",
"206 -7 LINE"
);
}
);
width = 430;
},
{
layerId = "4F25946F-63AC-42D6-8D55-01CF6A99025B";
paths = (
{
closed = 1;
nodes = (
"155 -167 OFFCURVE",
"237 -142 OFFCURVE",
"289 16 CURVE SMOOTH",
"449 500 LINE",
"247 500 LINE",
"130 82 LINE SMOOTH",
"112 17 OFFCURVE",
"83 -2 OFFCURVE",
"39 4 CURVE",
"39 -157 LINE"
);
},
{
closed = 1;
nodes = (
"293 141 LINE",
"197 500 LINE",
"-5 500 LINE",
"163 -7 LINE"
);
}
);
width = 443;
}
);
unicode = 0079;
},
{
color = 1;
glyphname = z;
lastChange = "2016-10-12 00:56:11 +0000";
layers = (
{
layerId = "262880E7-CFE1-4BDA-902E-E24798F3240A";
paths = (
{
closed = 1;
nodes = (
"354 0 LINE",
"354 22 LINE",
"75 22 LINE",
"365 500 LINE",
"45 500 LINE",
"45 479 LINE",
"327 479 LINE",
"37 0 LINE"
);
}
);
width = 402;
},
{
layerId = "4F25946F-63AC-42D6-8D55-01CF6A99025B";
paths = (
{
closed = 1;
nodes = (
"482 0 LINE",
"482 208 LINE",
"347 208 LINE",
"495 500 LINE",
"26 500 LINE",
"26 292 LINE",
"175 292 LINE",
"7 0 LINE"
);
}
);
width = 506;
}
);
unicode = 007A;
},
{
color = 1;
glyphname = period;
lastChange = "2016-10-12 00:56:11 +0000";
layers = (
{
layerId = "262880E7-CFE1-4BDA-902E-E24798F3240A";
paths = (
{
closed = 1;
nodes = (
"167 0 OFFCURVE",
"186 18 OFFCURVE",
"186 41 CURVE SMOOTH",
"186 63 OFFCURVE",
"167 81 OFFCURVE",
"145 81 CURVE SMOOTH",
"123 81 OFFCURVE",
"104 63 OFFCURVE",
"104 41 CURVE SMOOTH",
"104 18 OFFCURVE",
"122 0 OFFCURVE",
"145 0 CURVE SMOOTH"
);
}
);
width = 290;
},
{
layerId = "4F25946F-63AC-42D6-8D55-01CF6A99025B";
paths = (
{
closed = 1;
nodes = (
"201 -6 OFFCURVE",
"250 40 OFFCURVE",
"250 99 CURVE",
"250 156 OFFCURVE",
"201 202 OFFCURVE",
"144 202 CURVE SMOOTH",
"87 202 OFFCURVE",
"38 156 OFFCURVE",
"38 99 CURVE SMOOTH",
"38 40 OFFCURVE",
"85 -6 OFFCURVE",
"144 -6 CURVE SMOOTH"
);
}
);
width = 288;
}
);
unicode = 002E;
},
